<?xml version="1.0" encoding="UTF-8" standalone="no"?>
<!DOCTYPE svg PUBLIC "-//W3C//DTD SVG 1.1//EN"
 "http://www.w3.org/Graphics/SVG/1.1/DTD/svg11.dtd">
<!-- Generated by graphviz version 2.38.0 (20140413.2041)
 -->
<!-- Title: %3 Pages: 1 -->
<svg width="891pt" height="344pt"
 viewBox="0.00 0.00 891.00 344.00" xmlns="http://www.w3.org/2000/svg" xmlns:xlink="http://www.w3.org/1999/xlink">
<g id="graph0" class="graph" transform="scale(1 1) rotate(0) translate(4 340)">
<title>%3</title>
<polygon fill="white" stroke="none" points="-4,4 -4,-340 887,-340 887,4 -4,4"/>
<text text-anchor="middle" x="441.5" y="-7.8" font-family="Times,serif" font-size="14.00">D1</text>
<g id="clust1" class="cluster"><title>clusterCOMPONENT</title>
<polygon fill="none" stroke="black" points="8,-31 8,-328 875,-328 875,-31 8,-31"/>
<text text-anchor="middle" x="441.5" y="-312.8" font-family="Times,serif" font-size="14.00">COMPONENTS</text>
</g>
<!-- ca -->
<g id="node1" class="node"><title>ca</title>
<polygon fill="#bac0f4" stroke="none" points="333,-117.5 333,-238.5 550,-238.5 550,-117.5 333,-117.5"/>
<g id="a_node1_0"><a xlink:href="https://www.lapin.fr/C1" xlink:title="&lt;TABLE&gt;">
<polygon fill="white" stroke="none" points="336.5,-214 336.5,-235 547.5,-235 547.5,-214 336.5,-214"/>
<polygon fill="none" stroke="black" points="336.5,-214 336.5,-235 547.5,-235 547.5,-214 336.5,-214"/>
<text text-anchor="start" x="424" y="-220.8" font-family="Times,serif" font-size="14.00">C1 ca </text>
</a>
</g>
<polygon fill="none" stroke="black" points="336.5,-120 336.5,-212 413.5,-212 413.5,-120 336.5,-120"/>
<polygon fill="white" stroke="none" points="339.5,-123 339.5,-209 410.5,-209 410.5,-123 339.5,-123"/>
<text text-anchor="start" x="345.5" y="-193.8" font-family="Times,serif" font-size="14.00">PROVIDE</text>
<polygon fill="#e2dcbc" stroke="none" points="341.5,-167 341.5,-186 363.5,-186 363.5,-167 341.5,-167"/>
<text text-anchor="start" x="350.5" y="-172.8" font-family="Times,serif" font-size="14.00"> </text>
<g id="a_node1_1"><a xlink:href="https://www.lapin.fr/I1" xlink:title="&lt;TABLE&gt;">
<text text-anchor="start" x="371" y="-172.8" font-family="Times,serif" font-size="14.00">I1</text>
</a>
</g>
<text text-anchor="start" x="396" y="-172.8" font-family="Times,serif" font-size="14.00">a</text>
<polygon fill="#d9b8e3" stroke="none" points="341.5,-146 341.5,-165 363.5,-165 363.5,-146 341.5,-146"/>
<text text-anchor="start" x="350.5" y="-151.8" font-family="Times,serif" font-size="14.00"> </text>
<g id="a_node1_2"><a xlink:href="https://www.lapin.fr/I2" xlink:title="&lt;TABLE&gt;">
<text text-anchor="start" x="371" y="-151.8" font-family="Times,serif" font-size="14.00">I2</text>
</a>
</g>
<text text-anchor="start" x="396" y="-151.8" font-family="Times,serif" font-size="14.00">b</text>
<polygon fill="#ad8fd6" stroke="none" points="341.5,-125 341.5,-144 363.5,-144 363.5,-125 341.5,-125"/>
<text text-anchor="start" x="350.5" y="-130.8" font-family="Times,serif" font-size="14.00"> </text>
<g id="a_node1_3"><a xlink:href="https://www.lapin.fr/I4" xlink:title="&lt;TABLE&gt;">
<text text-anchor="start" x="371" y="-130.8" font-family="Times,serif" font-size="14.00">I4</text>
</a>
</g>
<text text-anchor="start" x="396" y="-130.8" font-family="Times,serif" font-size="14.00">g</text>
<polygon fill="none" stroke="black" points="415.5,-120 415.5,-212 468.5,-212 468.5,-120 415.5,-120"/>
<polygon fill="white" stroke="none" points="418.5,-123 418.5,-209 465.5,-209 465.5,-123 418.5,-123"/>
<text text-anchor="start" x="423" y="-162.3" font-family="Times,serif" font-size="14.00">DATA</text>
<polygon fill="none" stroke="black" points="470.5,-120 470.5,-212 547.5,-212 547.5,-120 470.5,-120"/>
<polygon fill="white" stroke="none" points="473.5,-123 473.5,-209 544.5,-209 544.5,-123 473.5,-123"/>
<text text-anchor="start" x="479.5" y="-190.3" font-family="Times,serif" font-size="14.00">REQUIRE</text>
<g id="a_node1_4"><a xlink:href="https://www.lapin.fr/I1" xlink:title="&lt;TABLE&gt;">
<text text-anchor="start" x="484.5" y="-162.3" font-family="Times,serif" font-size="14.00">I1</text>
</a>
</g>
<text text-anchor="start" x="513" y="-162.3" font-family="Times,serif" font-size="14.00">c</text>
<polygon fill="#e2dcbc" stroke="none" points="527.5,-153 527.5,-179 542.5,-179 542.5,-153 527.5,-153"/>
<text text-anchor="start" x="533" y="-162.3" font-family="Times,serif" font-size="14.00"> </text>
<g id="a_node1_5"><a xlink:href="https://www.lapin.fr/I1" xlink:title="&lt;TABLE&gt;">
<text text-anchor="start" x="484.5" y="-134.3" font-family="Times,serif" font-size="14.00">I1</text>
</a>
</g>
<text text-anchor="start" x="513" y="-134.3" font-family="Times,serif" font-size="14.00">d</text>
<polygon fill="#e2dcbc" stroke="none" points="527.5,-125 527.5,-151 542.5,-151 542.5,-125 527.5,-125"/>
<text text-anchor="start" x="533" y="-134.3" font-family="Times,serif" font-size="14.00"> </text>
<polygon fill="none" stroke="black" points="333,-117.5 333,-238.5 550,-238.5 550,-117.5 333,-117.5"/>
</g>
<!-- p_s2 -->
<g id="node6" class="node"><title>p_s2</title>
<ellipse fill="none" stroke="black" cx="597.5" cy="-166" rx="3.5" ry="3.5"/>
</g>
<!-- ca&#45;&gt;p_s2 -->
<g id="edge5" class="edge"><title>ca:c:e&#45;&gt;p_s2:w</title>
<path fill="none" stroke="#e2dcbc" stroke-width="2" d="M543.5,-166C565.944,-166 571.556,-166 594,-166"/>
</g>
<!-- p_s3 -->
<g id="node8" class="node"><title>p_s3</title>
<ellipse fill="none" stroke="black" cx="597.5" cy="-100" rx="3.5" ry="3.5"/>
</g>
<!-- ca&#45;&gt;p_s3 -->
<g id="edge8" class="edge"><title>ca:d:e&#45;&gt;p_s3:w</title>
<path fill="none" stroke="#e2dcbc" stroke-width="2" d="M543.5,-138C571.589,-138 565.911,-100 594,-100"/>
</g>
<!-- cb -->
<g id="node2" class="node"><title>cb</title>
<polygon fill="#fae4c6" stroke="none" points="645,-83 645,-183 859,-183 859,-83 645,-83"/>
<g id="a_node2_6"><a xlink:href="https://www.lapin.fr/C2" xlink:title="&lt;TABLE&gt;">
<polygon fill="white" stroke="none" points="648,-159 648,-180 856,-180 856,-159 648,-159"/>
<polygon fill="none" stroke="black" points="648,-159 648,-180 856,-180 856,-159 648,-159"/>
<text text-anchor="start" x="733.5" y="-165.8" font-family="Times,serif" font-size="14.00">C2 cb </text>
</a>
</g>
<polygon fill="none" stroke="black" points="648,-86 648,-157 725,-157 725,-86 648,-86"/>
<polygon fill="white" stroke="none" points="651,-89 651,-154 722,-154 722,-89 651,-89"/>
<text text-anchor="start" x="657" y="-138.8" font-family="Times,serif" font-size="14.00">PROVIDE</text>
<polygon fill="#e2dcbc" stroke="none" points="653,-112 653,-131 675,-131 675,-112 653,-112"/>
<text text-anchor="start" x="662" y="-117.8" font-family="Times,serif" font-size="14.00"> </text>
<g id="a_node2_7"><a xlink:href="https://www.lapin.fr/I1" xlink:title="&lt;TABLE&gt;">
<text text-anchor="start" x="682.5" y="-117.8" font-family="Times,serif" font-size="14.00">I1</text>
</a>
</g>
<text text-anchor="start" x="707.5" y="-117.8" font-family="Times,serif" font-size="14.00">a</text>
<polygon fill="#e2dcbc" stroke="none" points="653,-91 653,-110 675,-110 675,-91 653,-91"/>
<text text-anchor="start" x="662" y="-96.8" font-family="Times,serif" font-size="14.00"> </text>
<g id="a_node2_8"><a xlink:href="https://www.lapin.fr/I1" xlink:title="&lt;TABLE&gt;">
<text text-anchor="start" x="682.5" y="-96.8" font-family="Times,serif" font-size="14.00">I1</text>
</a>
</g>
<text text-anchor="start" x="707.5" y="-96.8" font-family="Times,serif" font-size="14.00">b</text>
<polygon fill="none" stroke="black" points="727,-86 727,-157 780,-157 780,-86 727,-86"/>
<polygon fill="white" stroke="none" points="730,-89 730,-154 777,-154 777,-89 730,-89"/>
<text text-anchor="start" x="734.5" y="-117.8" font-family="Times,serif" font-size="14.00">DATA</text>
<polygon fill="none" stroke="black" points="782,-86 782,-157 856,-157 856,-86 782,-86"/>
<polygon fill="white" stroke="none" points="785,-89 785,-154 853,-154 853,-89 785,-89"/>
<text text-anchor="start" x="789.5" y="-117.8" font-family="Times,serif" font-size="14.00">REQUIRE</text>
<polygon fill="none" stroke="black" points="645,-83 645,-183 859,-183 859,-83 645,-83"/>
</g>
<!-- cc -->
<g id="node3" class="node"><title>cc</title>
<polygon fill="#c3ebb7" stroke="none" points="24,-43 24,-143 238,-143 238,-43 24,-43"/>
<g id="a_node3_9"><a xlink:href="https://www.lapin.fr/C3" xlink:title="&lt;TABLE&gt;">
<polygon fill="white" stroke="none" points="27,-119 27,-140 235,-140 235,-119 27,-119"/>
<polygon fill="none" stroke="black" points="27,-119 27,-140 235,-140 235,-119 27,-119"/>
<text text-anchor="start" x="113" y="-125.8" font-family="Times,serif" font-size="14.00">C3 cc </text>
</a>
</g>
<polygon fill="none" stroke="black" points="27,-46 27,-117 101,-117 101,-46 27,-46"/>
<polygon fill="white" stroke="none" points="30,-49 30,-114 98,-114 98,-49 30,-49"/>
<text text-anchor="start" x="34.5" y="-77.8" font-family="Times,serif" font-size="14.00">PROVIDE</text>
<polygon fill="none" stroke="black" points="103,-46 103,-117 156,-117 156,-46 103,-46"/>
<polygon fill="white" stroke="none" points="106,-49 106,-114 153,-114 153,-49 106,-49"/>
<text text-anchor="start" x="110.5" y="-77.8" font-family="Times,serif" font-size="14.00">DATA</text>
<polygon fill="none" stroke="black" points="158,-46 158,-117 235,-117 235,-46 158,-46"/>
<polygon fill="white" stroke="none" points="161,-49 161,-114 232,-114 232,-49 161,-49"/>
<text text-anchor="start" x="167" y="-98.8" font-family="Times,serif" font-size="14.00">REQUIRE</text>
<g id="a_node3_10"><a xlink:href="https://www.lapin.fr/I1" xlink:title="&lt;TABLE&gt;">
<text text-anchor="start" x="172" y="-77.8" font-family="Times,serif" font-size="14.00">I1</text>
</a>
</g>
<text text-anchor="start" x="200.5" y="-77.8" font-family="Times,serif" font-size="14.00">c</text>
<polygon fill="#e2dcbc" stroke="none" points="215,-72 215,-91 230,-91 230,-72 215,-72"/>
<text text-anchor="start" x="220.5" y="-77.8" font-family="Times,serif" font-size="14.00"> </text>
<g id="a_node3_11"><a xlink:href="https://www.lapin.fr/I1" xlink:title="&lt;TABLE&gt;">
<text text-anchor="start" x="172" y="-56.8" font-family="Times,serif" font-size="14.00">I1</text>
</a>
</g>
<text text-anchor="start" x="200.5" y="-56.8" font-family="Times,serif" font-size="14.00">d</text>
<polygon fill="#e2dcbc" stroke="none" points="215,-51 215,-70 230,-70 230,-51 215,-51"/>
<text text-anchor="start" x="220.5" y="-56.8" font-family="Times,serif" font-size="14.00"> </text>
<polygon fill="none" stroke="black" points="24,-43 24,-143 238,-143 238,-43 24,-43"/>
</g>
<!-- p_s1 -->
<g id="node4" class="node"><title>p_s1</title>
<ellipse fill="none" stroke="black" cx="285.5" cy="-60" rx="3.5" ry="3.5"/>
</g>
<!-- cc&#45;&gt;p_s1 -->
<g id="edge2" class="edge"><title>cc:d:e&#45;&gt;p_s1:w</title>
<path fill="none" stroke="#e2dcbc" stroke-width="2" d="M231,-60C253.667,-60 259.333,-60 282,-60"/>
</g>
<!-- p_s4 -->
<g id="node10" class="node"><title>p_s4</title>
<ellipse fill="none" stroke="black" cx="285.5" cy="-176" rx="3.5" ry="3.5"/>
</g>
<!-- cc&#45;&gt;p_s4 -->
<g id="edge11" class="edge"><title>cc:c:e&#45;&gt;p_s4:w</title>
<path fill="none" stroke="#e2dcbc" stroke-width="2" d="M231,-81C278.922,-81 234.078,-176 282,-176"/>
</g>
<!-- p_s1&#45;&gt;cb -->
<g id="edge3" class="edge"><title>p_s1:e&#45;&gt;cb:b:w</title>
<path fill="none" stroke="#e2dcbc" stroke-width="2" d="M289,-60C305.606,-60 308.546,-52.2428 325,-50 427.607,-36.0138 457.522,-24.9396 558,-50 603.914,-61.4515 604.68,-100 652,-100"/>
</g>
<!-- s1 -->
<g id="node5" class="node"><title>s1</title>
<polygon fill="white" stroke="none" points="94.5,-169.5 94.5,-196.5 167.5,-196.5 167.5,-169.5 94.5,-169.5"/>
<g id="a_node5_12"><a xlink:href="http://lapin.com/Simple" xlink:title="&lt;TABLE&gt;">
<polygon fill="none" stroke="black" points="98,-172 98,-193 144,-193 144,-172 98,-172"/>
<text text-anchor="start" x="101" y="-178.8" font-family="Times,serif" font-size="14.00">Simple</text>
</a>
</g>
<polygon fill="none" stroke="black" points="146,-172 146,-193 165,-193 165,-172 146,-172"/>
<text text-anchor="start" x="149" y="-178.8" font-family="Times,serif" font-size="14.00">s1</text>
<polygon fill="none" stroke="black" points="94.5,-169.5 94.5,-196.5 167.5,-196.5 167.5,-169.5 94.5,-169.5"/>
</g>
<!-- s1&#45;&gt;p_s1 -->
<g id="edge1" class="edge"><title>s1:s&#45;&gt;p_s1:n</title>
<path fill="none" stroke="black" stroke-dasharray="1,5" d="M131,-164C131,-151.191 235.541,-163.394 246,-156 282.003,-130.549 285.5,-109.09 285.5,-65"/>
</g>
<!-- p_s2&#45;&gt;cb -->
<g id="edge6" class="edge"><title>p_s2:e&#45;&gt;cb:a:w</title>
<path fill="none" stroke="#e2dcbc" stroke-width="2" d="M601,-166C631.229,-166 621.771,-121 652,-121"/>
</g>
<!-- s2 -->
<g id="node7" class="node"><title>s2</title>
<polygon fill="white" stroke="none" points="405,-265.5 405,-292.5 478,-292.5 478,-265.5 405,-265.5"/>
<g id="a_node7_13"><a xlink:href="http://lapin.com/Simple" xlink:title="&lt;TABLE&gt;">
<polygon fill="none" stroke="black" points="408.5,-268 408.5,-289 454.5,-289 454.5,-268 408.5,-268"/>
<text text-anchor="start" x="411.5" y="-274.8" font-family="Times,serif" font-size="14.00">Simple</text>
</a>
</g>
<polygon fill="none" stroke="black" points="456.5,-268 456.5,-289 475.5,-289 475.5,-268 456.5,-268"/>
<text text-anchor="start" x="459.5" y="-274.8" font-family="Times,serif" font-size="14.00">s2</text>
<polygon fill="none" stroke="black" points="405,-265.5 405,-292.5 478,-292.5 478,-265.5 405,-265.5"/>
</g>
<!-- s2&#45;&gt;p_s2 -->
<g id="edge4" class="edge"><title>s2:s&#45;&gt;p_s2:n</title>
<path fill="none" stroke="black" stroke-dasharray="1,5" d="M441.5,-260C441.5,-247.025 547.239,-259.249 558,-252 591.218,-229.623 597.5,-211.052 597.5,-171"/>
</g>
<!-- p_s3&#45;&gt;cb -->
<g id="edge9" class="edge"><title>p_s3:e&#45;&gt;cb:b:w</title>
<path fill="none" stroke="#e2dcbc" stroke-width="2" d="M601,-100C623.667,-100 629.333,-100 652,-100"/>
</g>
<!-- s3 -->
<g id="node9" class="node"><title>s3</title>
<polygon fill="white" stroke="none" points="405,-63.5 405,-90.5 478,-90.5 478,-63.5 405,-63.5"/>
<g id="a_node9_14"><a xlink:href="http://lapin.com/Simple" xlink:title="&lt;TABLE&gt;">
<polygon fill="none" stroke="black" points="408.5,-66 408.5,-87 454.5,-87 454.5,-66 408.5,-66"/>
<text text-anchor="start" x="411.5" y="-72.8" font-family="Times,serif" font-size="14.00">Simple</text>
</a>
</g>
<polygon fill="none" stroke="black" points="456.5,-66 456.5,-87 475.5,-87 475.5,-66 456.5,-66"/>
<text text-anchor="start" x="459.5" y="-72.8" font-family="Times,serif" font-size="14.00">s3</text>
<polygon fill="none" stroke="black" points="405,-63.5 405,-90.5 478,-90.5 478,-63.5 405,-63.5"/>
</g>
<!-- s3&#45;&gt;p_s3 -->
<g id="edge7" class="edge"><title>s3:s&#45;&gt;p_s3:n</title>
<path fill="none" stroke="black" stroke-dasharray="1,5" d="M441.5,-58C441.5,-38.2172 466.646,-54.9026 486,-59 538.445,-70.1031 597.5,-158.607 597.5,-105"/>
</g>
<!-- p_s4&#45;&gt;ca -->
<g id="edge12" class="edge"><title>p_s4:e&#45;&gt;ca:a:w</title>
<path fill="none" stroke="#e2dcbc" stroke-width="2" d="M289,-176C311.889,-176 317.611,-176 340.5,-176"/>
</g>
<!-- s4 -->
<g id="node11" class="node"><title>s4</title>
<polygon fill="white" stroke="none" points="94.5,-223.5 94.5,-250.5 167.5,-250.5 167.5,-223.5 94.5,-223.5"/>
<g id="a_node11_15"><a xlink:href="http://lapin.com/Simple" xlink:title="&lt;TABLE&gt;">
<polygon fill="none" stroke="black" points="98,-226 98,-247 144,-247 144,-226 98,-226"/>
<text text-anchor="start" x="101" y="-232.8" font-family="Times,serif" font-size="14.00">Simple</text>
</a>
</g>
<polygon fill="none" stroke="black" points="146,-226 146,-247 165,-247 165,-226 146,-226"/>
<text text-anchor="start" x="149" y="-232.8" font-family="Times,serif" font-size="14.00">s4</text>
<polygon fill="none" stroke="black" points="94.5,-223.5 94.5,-250.5 167.5,-250.5 167.5,-223.5 94.5,-223.5"/>
</g>
<!-- s4&#45;&gt;p_s4 -->
<g id="edge10" class="edge"><title>s4:s&#45;&gt;p_s4:n</title>
<path fill="none" stroke="black" stroke-dasharray="1,5" d="M131,-218C131,-205.191 233.974,-214.409 246,-210 266.448,-202.504 285.5,-202.779 285.5,-181"/>
</g>
</g>
</svg>
