<?xml version="1.0" encoding="UTF-8" standalone="no"?>
<!DOCTYPE svg PUBLIC "-//W3C//DTD SVG 1.1//EN"
 "http://www.w3.org/Graphics/SVG/1.1/DTD/svg11.dtd">
<!-- Generated by graphviz version 2.38.0 (20140413.2041)
 -->
<!-- Title: %3 Pages: 1 -->
<svg width="532pt" height="350pt"
 viewBox="0.00 0.00 532.00 350.00" xmlns="http://www.w3.org/2000/svg" xmlns:xlink="http://www.w3.org/1999/xlink">
<g id="graph0" class="graph" transform="scale(1 1) rotate(0) translate(4 346)">
<title>%3</title>
<polygon fill="white" stroke="none" points="-4,4 -4,-346 528,-346 528,4 -4,4"/>
<text text-anchor="middle" x="262" y="-7.8" font-family="Times,serif" font-size="14.00">D1</text>
<g id="clust1" class="cluster"><title>clusterCOMPONENT</title>
<polygon fill="none" stroke="black" points="8,-31 8,-251 516,-251 516,-31 8,-31"/>
<text text-anchor="middle" x="262" y="-235.8" font-family="Times,serif" font-size="14.00">COMPONENT</text>
</g>
<g id="clust4" class="cluster"><title>clusterdirect</title>
<polygon fill="none" stroke="black" points="15,-259 15,-334 120,-334 120,-259 15,-259"/>
<text text-anchor="middle" x="67.5" y="-318.8" font-family="Times,serif" font-size="14.00">LINK DIRECT</text>
</g>
<!-- ca -->
<g id="node1" class="node"><title>ca</title>
<g id="a_node1_0"><a xlink:href="https://www.lapin.fr/C1" xlink:title="&lt;TABLE&gt;">
<polygon fill="none" stroke="black" points="179,-191 179,-212 341,-212 341,-191 179,-191"/>
<text text-anchor="start" x="242" y="-197.8" font-family="Times,serif" font-size="14.00">C1 ca </text>
</a>
</g>
<polygon fill="none" stroke="black" points="179,-97 179,-189 260,-189 260,-97 179,-97"/>
<text text-anchor="start" x="188" y="-170.8" font-family="Times,serif" font-size="14.00"> PROVIDE</text>
<g id="a_node1_1"><a xlink:href="https://www.lapin.fr/I1" xlink:title="&lt;TABLE&gt;">
<text text-anchor="start" x="214.5" y="-149.8" font-family="Times,serif" font-size="14.00">I1</text>
</a>
</g>
<text text-anchor="start" x="241.5" y="-149.8" font-family="Times,serif" font-size="14.00">a</text>
<g id="a_node1_2"><a xlink:href="https://www.lapin.fr/I1" xlink:title="&lt;TABLE&gt;">
<text text-anchor="start" x="214.5" y="-128.8" font-family="Times,serif" font-size="14.00">I1</text>
</a>
</g>
<text text-anchor="start" x="241.5" y="-128.8" font-family="Times,serif" font-size="14.00">b</text>
<g id="a_node1_3"><a xlink:href="https://www.lapin.fr/I1" xlink:title="&lt;TABLE&gt;">
<text text-anchor="start" x="214.5" y="-107.8" font-family="Times,serif" font-size="14.00">I1</text>
</a>
</g>
<text text-anchor="start" x="241.5" y="-107.8" font-family="Times,serif" font-size="14.00">g</text>
<polygon fill="none" stroke="black" points="262,-97 262,-189 339,-189 339,-97 262,-97"/>
<text text-anchor="start" x="271" y="-167.3" font-family="Times,serif" font-size="14.00">REQUIRE</text>
<g id="a_node1_4"><a xlink:href="https://www.lapin.fr/I1" xlink:title="&lt;TABLE&gt;">
<text text-anchor="start" x="277" y="-139.3" font-family="Times,serif" font-size="14.00">I1</text>
</a>
</g>
<text text-anchor="start" x="307" y="-139.3" font-family="Times,serif" font-size="14.00">c</text>
<g id="a_node1_5"><a xlink:href="https://www.lapin.fr/I1" xlink:title="&lt;TABLE&gt;">
<text text-anchor="start" x="277" y="-111.3" font-family="Times,serif" font-size="14.00">I1</text>
</a>
</g>
<text text-anchor="start" x="307" y="-111.3" font-family="Times,serif" font-size="14.00">d</text>
<polygon fill="none" stroke="black" points="176,-94.5 176,-215.5 344,-215.5 344,-94.5 176,-94.5"/>
</g>
<!-- cb -->
<g id="node2" class="node"><title>cb</title>
<g id="a_node2_6"><a xlink:href="https://www.lapin.fr/C2" xlink:title="&lt;TABLE&gt;">
<polygon fill="none" stroke="black" points="412.5,-164 412.5,-185 497.5,-185 497.5,-164 412.5,-164"/>
<text text-anchor="start" x="436.5" y="-170.8" font-family="Times,serif" font-size="14.00">C2 cb </text>
</a>
</g>
<polygon fill="none" stroke="black" points="412.5,-91 412.5,-162 493.5,-162 493.5,-91 412.5,-91"/>
<text text-anchor="start" x="421.5" y="-143.8" font-family="Times,serif" font-size="14.00"> PROVIDE</text>
<g id="a_node2_7"><a xlink:href="https://www.lapin.fr/I1" xlink:title="&lt;TABLE&gt;">
<text text-anchor="start" x="448" y="-122.8" font-family="Times,serif" font-size="14.00">I1</text>
</a>
</g>
<text text-anchor="start" x="475" y="-122.8" font-family="Times,serif" font-size="14.00">a</text>
<g id="a_node2_8"><a xlink:href="https://www.lapin.fr/I1" xlink:title="&lt;TABLE&gt;">
<text text-anchor="start" x="448" y="-101.8" font-family="Times,serif" font-size="14.00">I1</text>
</a>
</g>
<text text-anchor="start" x="475" y="-101.8" font-family="Times,serif" font-size="14.00">b</text>
<polygon fill="none" stroke="black" points="409,-88 409,-188 500,-188 500,-88 409,-88"/>
</g>
<!-- ca&#45;&gt;cb -->
<g id="edge2" class="edge"><title>ca:c:e&#45;&gt;cb:a:w</title>
<path fill="none" stroke="black" d="M335,-143C368.388,-143 377.753,-129.158 406.449,-126.455"/>
<polygon fill="black" stroke="black" points="406.668,-129.948 416.5,-126 406.352,-122.956 406.668,-129.948"/>
<text text-anchor="middle" x="376.5" y="-139.8" font-family="Times,serif" font-size="14.00">s1</text>
</g>
<!-- ca&#45;&gt;cb -->
<g id="edge3" class="edge"><title>ca:d:e&#45;&gt;cb:b:w</title>
<path fill="none" stroke="black" d="M335,-115C367.787,-115 377.988,-106.928 406.188,-105.288"/>
<polygon fill="black" stroke="black" points="406.602,-108.778 416.5,-105 406.406,-101.781 406.602,-108.778"/>
<text text-anchor="middle" x="376.5" y="-114.8" font-family="Times,serif" font-size="14.00">s1</text>
</g>
<!-- cc -->
<g id="node3" class="node"><title>cc</title>
<g id="a_node3_9"><a xlink:href="https://www.lapin.fr/C3" xlink:title="&lt;TABLE&gt;">
<polygon fill="none" stroke="black" points="27.5,-137 27.5,-158 108.5,-158 108.5,-137 27.5,-137"/>
<text text-anchor="start" x="50" y="-143.8" font-family="Times,serif" font-size="14.00">C3 cc </text>
</a>
</g>
<polygon fill="none" stroke="black" points="27.5,-64 27.5,-135 104.5,-135 104.5,-64 27.5,-64"/>
<text text-anchor="start" x="36.5" y="-116.8" font-family="Times,serif" font-size="14.00">REQUIRE</text>
<g id="a_node3_10"><a xlink:href="https://www.lapin.fr/I1" xlink:title="&lt;TABLE&gt;">
<text text-anchor="start" x="42.5" y="-95.8" font-family="Times,serif" font-size="14.00">I1</text>
</a>
</g>
<text text-anchor="start" x="72.5" y="-95.8" font-family="Times,serif" font-size="14.00">c</text>
<g id="a_node3_11"><a xlink:href="https://www.lapin.fr/I1" xlink:title="&lt;TABLE&gt;">
<text text-anchor="start" x="42.5" y="-74.8" font-family="Times,serif" font-size="14.00">I1</text>
</a>
</g>
<text text-anchor="start" x="72.5" y="-74.8" font-family="Times,serif" font-size="14.00">d</text>
<polygon fill="none" stroke="black" points="24,-61 24,-161 111,-161 111,-61 24,-61"/>
</g>
<!-- cc&#45;&gt;ca -->
<g id="edge4" class="edge"><title>cc:c:e&#45;&gt;ca:a:w</title>
<path fill="none" stroke="black" d="M100.5,-99C140.557,-99 139.7,-144.118 172.725,-151.872"/>
<polygon fill="black" stroke="black" points="172.678,-155.388 183,-153 173.442,-148.43 172.678,-155.388"/>
<text text-anchor="middle" x="143.5" y="-138.8" font-family="Times,serif" font-size="14.00">s1</text>
</g>
<!-- cc&#45;&gt;cb -->
<g id="edge1" class="edge"><title>cc:d:e&#45;&gt;cb:b:w</title>
<path fill="none" stroke="black" d="M100.5,-78C130.97,-78 137.647,-68.677 168,-66 249.462,-58.8153 273.227,-44.0363 352,-66 380.613,-73.978 382.857,-98.4721 406.355,-103.919"/>
<polygon fill="black" stroke="black" points="406.185,-107.421 416.5,-105 406.927,-100.46 406.185,-107.421"/>
<text text-anchor="middle" x="260" y="-69.8" font-family="Times,serif" font-size="14.00">s1</text>
</g>
<!-- s1 -->
<g id="node4" class="node"><title>s1</title>
<g id="a_node4_12"><a xlink:href="http://lapin.com/Simple" xlink:title="&lt;TABLE&gt;">
<polygon fill="none" stroke="black" points="34.5,-274 34.5,-295 80.5,-295 80.5,-274 34.5,-274"/>
<text text-anchor="start" x="37.5" y="-280.8" font-family="Times,serif" font-size="14.00">Simple</text>
</a>
</g>
<polygon fill="none" stroke="black" points="82.5,-274 82.5,-295 101.5,-295 101.5,-274 82.5,-274"/>
<text text-anchor="start" x="85.5" y="-280.8" font-family="Times,serif" font-size="14.00">s1</text>
<polygon fill="none" stroke="black" points="31,-271.5 31,-298.5 104,-298.5 104,-271.5 31,-271.5"/>
</g>
</g>
</svg>
