<?xml version="1.0" encoding="UTF-8" standalone="no"?>
<!DOCTYPE svg PUBLIC "-//W3C//DTD SVG 1.1//EN"
 "http://www.w3.org/Graphics/SVG/1.1/DTD/svg11.dtd">
<!-- Generated by graphviz version 2.38.0 (20140413.2041)
 -->
<!-- Title: %3 Pages: 1 -->
<svg width="299pt" height="572pt"
 viewBox="0.00 0.00 299.00 572.00" xmlns="http://www.w3.org/2000/svg" xmlns:xlink="http://www.w3.org/1999/xlink">
<g id="graph0" class="graph" transform="scale(1 1) rotate(0) translate(4 568)">
<title>%3</title>
<polygon fill="white" stroke="none" points="-4,4 -4,-568 295,-568 295,4 -4,4"/>
<text text-anchor="middle" x="145.5" y="-7.8" font-family="Times,serif" font-size="14.00">D2</text>
<g id="clust1" class="cluster"><title>clusterCOMPONENT</title>
<polygon fill="none" stroke="black" points="8,-31 8,-473 283,-473 283,-31 8,-31"/>
<text text-anchor="middle" x="145.5" y="-457.8" font-family="Times,serif" font-size="14.00">COMPONENT</text>
</g>
<g id="clust4" class="cluster"><title>clusterdirect</title>
<polygon fill="none" stroke="black" points="15,-481 15,-556 120,-556 120,-481 15,-481"/>
<text text-anchor="middle" x="67.5" y="-540.8" font-family="Times,serif" font-size="14.00">LINK DIRECT</text>
</g>
<!-- ca -->
<g id="node1" class="node"><title>ca</title>
<g id="a_node1_0"><a xlink:href="https://www.lapin.fr/C2" xlink:title="&lt;TABLE&gt;">
<polygon fill="none" stroke="black" points="179.5,-266 179.5,-287 264.5,-287 264.5,-266 179.5,-266"/>
<text text-anchor="start" x="204" y="-272.8" font-family="Times,serif" font-size="14.00">C2 ca </text>
</a>
</g>
<polygon fill="none" stroke="black" points="179.5,-193 179.5,-264 260.5,-264 260.5,-193 179.5,-193"/>
<text text-anchor="start" x="188.5" y="-245.8" font-family="Times,serif" font-size="14.00"> PROVIDE</text>
<g id="a_node1_1"><a xlink:href="https://www.lapin.fr/I1" xlink:title="&lt;TABLE&gt;">
<text text-anchor="start" x="215" y="-224.8" font-family="Times,serif" font-size="14.00">I1</text>
</a>
</g>
<text text-anchor="start" x="242" y="-224.8" font-family="Times,serif" font-size="14.00">a</text>
<g id="a_node1_2"><a xlink:href="https://www.lapin.fr/I1" xlink:title="&lt;TABLE&gt;">
<text text-anchor="start" x="215" y="-203.8" font-family="Times,serif" font-size="14.00">I1</text>
</a>
</g>
<text text-anchor="start" x="242" y="-203.8" font-family="Times,serif" font-size="14.00">b</text>
<polygon fill="none" stroke="black" points="176,-190 176,-290 267,-290 267,-190 176,-190"/>
</g>
<!-- cb1 -->
<g id="node2" class="node"><title>cb1</title>
<g id="a_node2_3"><a xlink:href="https://www.lapin.fr/C4" xlink:title="&lt;TABLE&gt;">
<polygon fill="none" stroke="black" points="27.5,-413 27.5,-434 108.5,-434 108.5,-413 27.5,-413"/>
<text text-anchor="start" x="46.5" y="-419.8" font-family="Times,serif" font-size="14.00">C4 cb1 </text>
</a>
</g>
<polygon fill="none" stroke="black" points="27.5,-361 27.5,-411 104.5,-411 104.5,-361 27.5,-361"/>
<text text-anchor="start" x="36.5" y="-392.8" font-family="Times,serif" font-size="14.00">REQUIRE</text>
<g id="a_node2_4"><a xlink:href="https://www.lapin.fr/I1" xlink:title="&lt;TABLE&gt;">
<text text-anchor="start" x="42.5" y="-371.8" font-family="Times,serif" font-size="14.00">I1</text>
</a>
</g>
<text text-anchor="start" x="72.5" y="-371.8" font-family="Times,serif" font-size="14.00">a</text>
<polygon fill="none" stroke="black" points="24,-358.5 24,-437.5 111,-437.5 111,-358.5 24,-358.5"/>
</g>
<!-- cb1&#45;&gt;ca -->
<g id="edge1" class="edge"><title>cb1:a:e&#45;&gt;ca:a:w</title>
<path fill="none" stroke="black" d="M100.5,-375C134.644,-375 144.315,-253.227 174.061,-231.346"/>
<polygon fill="black" stroke="black" points="175.244,-234.641 183.5,-228 172.905,-228.043 175.244,-234.641"/>
<text text-anchor="middle" x="143.5" y="-317.8" font-family="Times,serif" font-size="14.00">s1</text>
</g>
<!-- cb2 -->
<g id="node3" class="node"><title>cb2</title>
<g id="a_node3_5"><a xlink:href="https://www.lapin.fr/C4" xlink:title="&lt;TABLE&gt;">
<polygon fill="none" stroke="black" points="27.5,-308 27.5,-329 108.5,-329 108.5,-308 27.5,-308"/>
<text text-anchor="start" x="46.5" y="-314.8" font-family="Times,serif" font-size="14.00">C4 cb2 </text>
</a>
</g>
<polygon fill="none" stroke="black" points="27.5,-256 27.5,-306 104.5,-306 104.5,-256 27.5,-256"/>
<text text-anchor="start" x="36.5" y="-287.8" font-family="Times,serif" font-size="14.00">REQUIRE</text>
<g id="a_node3_6"><a xlink:href="https://www.lapin.fr/I1" xlink:title="&lt;TABLE&gt;">
<text text-anchor="start" x="42.5" y="-266.8" font-family="Times,serif" font-size="14.00">I1</text>
</a>
</g>
<text text-anchor="start" x="72.5" y="-266.8" font-family="Times,serif" font-size="14.00">a</text>
<polygon fill="none" stroke="black" points="24,-253.5 24,-332.5 111,-332.5 111,-253.5 24,-253.5"/>
</g>
<!-- cb2&#45;&gt;ca -->
<g id="edge2" class="edge"><title>cb2:a:e&#45;&gt;ca:a:w</title>
<path fill="none" stroke="black" d="M100.5,-270C138.128,-270 141.769,-235.208 173.291,-228.956"/>
<polygon fill="black" stroke="black" points="173.87,-232.417 183.5,-228 173.217,-225.448 173.87,-232.417"/>
<text text-anchor="middle" x="143.5" y="-255.8" font-family="Times,serif" font-size="14.00">s1</text>
</g>
<!-- cb3 -->
<g id="node4" class="node"><title>cb3</title>
<g id="a_node4_7"><a xlink:href="https://www.lapin.fr/C4" xlink:title="&lt;TABLE&gt;">
<polygon fill="none" stroke="black" points="27.5,-203 27.5,-224 108.5,-224 108.5,-203 27.5,-203"/>
<text text-anchor="start" x="46.5" y="-209.8" font-family="Times,serif" font-size="14.00">C4 cb3 </text>
</a>
</g>
<polygon fill="none" stroke="black" points="27.5,-151 27.5,-201 104.5,-201 104.5,-151 27.5,-151"/>
<text text-anchor="start" x="36.5" y="-182.8" font-family="Times,serif" font-size="14.00">REQUIRE</text>
<g id="a_node4_8"><a xlink:href="https://www.lapin.fr/I1" xlink:title="&lt;TABLE&gt;">
<text text-anchor="start" x="42.5" y="-161.8" font-family="Times,serif" font-size="14.00">I1</text>
</a>
</g>
<text text-anchor="start" x="72.5" y="-161.8" font-family="Times,serif" font-size="14.00">a</text>
<polygon fill="none" stroke="black" points="24,-148.5 24,-227.5 111,-227.5 111,-148.5 24,-148.5"/>
</g>
<!-- cb3&#45;&gt;ca -->
<g id="edge3" class="edge"><title>cb3:a:e&#45;&gt;ca:b:w</title>
<path fill="none" stroke="black" d="M100.5,-165C138.128,-165 141.769,-199.792 173.291,-206.044"/>
<polygon fill="black" stroke="black" points="173.217,-209.552 183.5,-207 173.87,-202.583 173.217,-209.552"/>
<text text-anchor="middle" x="143.5" y="-196.8" font-family="Times,serif" font-size="14.00">s1</text>
</g>
<!-- cb4 -->
<g id="node5" class="node"><title>cb4</title>
<g id="a_node5_9"><a xlink:href="https://www.lapin.fr/C4" xlink:title="&lt;TABLE&gt;">
<polygon fill="none" stroke="black" points="27.5,-98 27.5,-119 108.5,-119 108.5,-98 27.5,-98"/>
<text text-anchor="start" x="46.5" y="-104.8" font-family="Times,serif" font-size="14.00">C4 cb4 </text>
</a>
</g>
<polygon fill="none" stroke="black" points="27.5,-46 27.5,-96 104.5,-96 104.5,-46 27.5,-46"/>
<text text-anchor="start" x="36.5" y="-77.8" font-family="Times,serif" font-size="14.00">REQUIRE</text>
<g id="a_node5_10"><a xlink:href="https://www.lapin.fr/I1" xlink:title="&lt;TABLE&gt;">
<text text-anchor="start" x="42.5" y="-56.8" font-family="Times,serif" font-size="14.00">I1</text>
</a>
</g>
<text text-anchor="start" x="72.5" y="-56.8" font-family="Times,serif" font-size="14.00">a</text>
<polygon fill="none" stroke="black" points="24,-43.5 24,-122.5 111,-122.5 111,-43.5 24,-43.5"/>
</g>
<!-- cb4&#45;&gt;ca -->
<g id="edge4" class="edge"><title>cb4:a:e&#45;&gt;ca:b:w</title>
<path fill="none" stroke="black" d="M100.5,-60C134.644,-60 144.315,-181.773 174.061,-203.654"/>
<polygon fill="black" stroke="black" points="172.905,-206.957 183.5,-207 175.244,-200.359 172.905,-206.957"/>
<text text-anchor="middle" x="143.5" y="-159.8" font-family="Times,serif" font-size="14.00">s1</text>
</g>
<!-- s1 -->
<g id="node6" class="node"><title>s1</title>
<g id="a_node6_11"><a xlink:href="http://lapin.com/Simple" xlink:title="&lt;TABLE&gt;">
<polygon fill="none" stroke="black" points="34.5,-496 34.5,-517 80.5,-517 80.5,-496 34.5,-496"/>
<text text-anchor="start" x="37.5" y="-502.8" font-family="Times,serif" font-size="14.00">Simple</text>
</a>
</g>
<polygon fill="none" stroke="black" points="82.5,-496 82.5,-517 101.5,-517 101.5,-496 82.5,-496"/>
<text text-anchor="start" x="85.5" y="-502.8" font-family="Times,serif" font-size="14.00">s1</text>
<polygon fill="none" stroke="black" points="31,-493.5 31,-520.5 104,-520.5 104,-493.5 31,-493.5"/>
</g>
</g>
</svg>
