<?xml version="1.0" encoding="UTF-8" standalone="no"?>
<!DOCTYPE svg PUBLIC "-//W3C//DTD SVG 1.1//EN"
 "http://www.w3.org/Graphics/SVG/1.1/DTD/svg11.dtd">
<!-- Generated by graphviz version 2.38.0 (20140413.2041)
 -->
<!-- Title: %3 Pages: 1 -->
<svg width="579pt" height="708pt"
 viewBox="0.00 0.00 579.00 708.00" xmlns="http://www.w3.org/2000/svg" xmlns:xlink="http://www.w3.org/1999/xlink">
<g id="graph0" class="graph" transform="scale(1 1) rotate(0) translate(4 704)">
<title>%3</title>
<polygon fill="white" stroke="none" points="-4,4 -4,-704 575,-704 575,4 -4,4"/>
<text text-anchor="middle" x="285.5" y="-7.8" font-family="Times,serif" font-size="14.00">D2</text>
<g id="clust1" class="cluster"><title>clusterCOMPONENT</title>
<polygon fill="none" stroke="black" points="8,-31 8,-692 563,-692 563,-31 8,-31"/>
<text text-anchor="middle" x="285.5" y="-676.8" font-family="Times,serif" font-size="14.00">COMPONENTS</text>
</g>
<!-- ca -->
<g id="node1" class="node"><title>ca</title>
<polygon fill="#fae4c6" stroke="none" points="333,-313 333,-413 547,-413 547,-313 333,-313"/>
<g id="a_node1_0"><a xlink:href="https://www.lapin.fr/C2" xlink:title="&lt;TABLE&gt;">
<polygon fill="white" stroke="none" points="336,-389 336,-410 544,-410 544,-389 336,-389"/>
<polygon fill="none" stroke="black" points="336,-389 336,-410 544,-410 544,-389 336,-389"/>
<text text-anchor="start" x="422" y="-395.8" font-family="Times,serif" font-size="14.00">C2 ca </text>
</a>
</g>
<polygon fill="none" stroke="black" points="336,-316 336,-387 413,-387 413,-316 336,-316"/>
<polygon fill="white" stroke="none" points="339,-319 339,-384 410,-384 410,-319 339,-319"/>
<text text-anchor="start" x="345" y="-368.8" font-family="Times,serif" font-size="14.00">PROVIDE</text>
<polygon fill="#e2dcbc" stroke="none" points="341,-342 341,-361 363,-361 363,-342 341,-342"/>
<text text-anchor="start" x="350" y="-347.8" font-family="Times,serif" font-size="14.00"> </text>
<g id="a_node1_1"><a xlink:href="https://www.lapin.fr/I1" xlink:title="&lt;TABLE&gt;">
<text text-anchor="start" x="370.5" y="-347.8" font-family="Times,serif" font-size="14.00">I1</text>
</a>
</g>
<text text-anchor="start" x="395.5" y="-347.8" font-family="Times,serif" font-size="14.00">a</text>
<polygon fill="#e2dcbc" stroke="none" points="341,-321 341,-340 363,-340 363,-321 341,-321"/>
<text text-anchor="start" x="350" y="-326.8" font-family="Times,serif" font-size="14.00"> </text>
<g id="a_node1_2"><a xlink:href="https://www.lapin.fr/I1" xlink:title="&lt;TABLE&gt;">
<text text-anchor="start" x="370.5" y="-326.8" font-family="Times,serif" font-size="14.00">I1</text>
</a>
</g>
<text text-anchor="start" x="395.5" y="-326.8" font-family="Times,serif" font-size="14.00">b</text>
<polygon fill="none" stroke="black" points="415,-316 415,-387 468,-387 468,-316 415,-316"/>
<polygon fill="white" stroke="none" points="418,-319 418,-384 465,-384 465,-319 418,-319"/>
<text text-anchor="start" x="422.5" y="-347.8" font-family="Times,serif" font-size="14.00">DATA</text>
<polygon fill="none" stroke="black" points="470,-316 470,-387 544,-387 544,-316 470,-316"/>
<polygon fill="white" stroke="none" points="473,-319 473,-384 541,-384 541,-319 473,-319"/>
<text text-anchor="start" x="477.5" y="-347.8" font-family="Times,serif" font-size="14.00">REQUIRE</text>
<polygon fill="none" stroke="black" points="333,-313 333,-413 547,-413 547,-313 333,-313"/>
</g>
<!-- cb1 -->
<g id="node2" class="node"><title>cb1</title>
<polygon fill="#e9b8f7" stroke="none" points="24,-523.5 24,-602.5 238,-602.5 238,-523.5 24,-523.5"/>
<g id="a_node2_3"><a xlink:href="https://www.lapin.fr/C4" xlink:title="&lt;TABLE&gt;">
<polygon fill="white" stroke="none" points="27,-578 27,-599 235,-599 235,-578 27,-578"/>
<polygon fill="none" stroke="black" points="27,-578 27,-599 235,-599 235,-578 27,-578"/>
<text text-anchor="start" x="109.5" y="-584.8" font-family="Times,serif" font-size="14.00">C4 cb1 </text>
</a>
</g>
<polygon fill="none" stroke="black" points="27,-526 27,-576 101,-576 101,-526 27,-526"/>
<polygon fill="white" stroke="none" points="30,-529 30,-573 98,-573 98,-529 30,-529"/>
<text text-anchor="start" x="34.5" y="-547.3" font-family="Times,serif" font-size="14.00">PROVIDE</text>
<polygon fill="none" stroke="black" points="103,-526 103,-576 156,-576 156,-526 103,-526"/>
<polygon fill="white" stroke="none" points="106,-529 106,-573 153,-573 153,-529 106,-529"/>
<text text-anchor="start" x="110.5" y="-547.3" font-family="Times,serif" font-size="14.00">DATA</text>
<polygon fill="none" stroke="black" points="158,-526 158,-576 235,-576 235,-526 158,-526"/>
<polygon fill="white" stroke="none" points="161,-529 161,-573 232,-573 232,-529 161,-529"/>
<text text-anchor="start" x="167" y="-557.8" font-family="Times,serif" font-size="14.00">REQUIRE</text>
<g id="a_node2_4"><a xlink:href="https://www.lapin.fr/I1" xlink:title="&lt;TABLE&gt;">
<text text-anchor="start" x="172" y="-536.8" font-family="Times,serif" font-size="14.00">I1</text>
</a>
</g>
<text text-anchor="start" x="200.5" y="-536.8" font-family="Times,serif" font-size="14.00">a</text>
<polygon fill="#e2dcbc" stroke="none" points="215,-531 215,-550 230,-550 230,-531 215,-531"/>
<text text-anchor="start" x="220.5" y="-536.8" font-family="Times,serif" font-size="14.00"> </text>
<polygon fill="none" stroke="black" points="24,-523.5 24,-602.5 238,-602.5 238,-523.5 24,-523.5"/>
</g>
<!-- p_s1 -->
<g id="node6" class="node"><title>p_s1</title>
<ellipse fill="none" stroke="black" cx="285.5" cy="-540" rx="3.5" ry="3.5"/>
</g>
<!-- cb1&#45;&gt;p_s1 -->
<g id="edge2" class="edge"><title>cb1:a:e&#45;&gt;p_s1:w</title>
<path fill="none" stroke="#e2dcbc" stroke-width="2" d="M231,-540C253.667,-540 259.333,-540 282,-540"/>
</g>
<!-- cb2 -->
<g id="node3" class="node"><title>cb2</title>
<polygon fill="#e9b8f7" stroke="none" points="24,-363.5 24,-442.5 238,-442.5 238,-363.5 24,-363.5"/>
<g id="a_node3_5"><a xlink:href="https://www.lapin.fr/C4" xlink:title="&lt;TABLE&gt;">
<polygon fill="white" stroke="none" points="27,-418 27,-439 235,-439 235,-418 27,-418"/>
<polygon fill="none" stroke="black" points="27,-418 27,-439 235,-439 235,-418 27,-418"/>
<text text-anchor="start" x="109.5" y="-424.8" font-family="Times,serif" font-size="14.00">C4 cb2 </text>
</a>
</g>
<polygon fill="none" stroke="black" points="27,-366 27,-416 101,-416 101,-366 27,-366"/>
<polygon fill="white" stroke="none" points="30,-369 30,-413 98,-413 98,-369 30,-369"/>
<text text-anchor="start" x="34.5" y="-387.3" font-family="Times,serif" font-size="14.00">PROVIDE</text>
<polygon fill="none" stroke="black" points="103,-366 103,-416 156,-416 156,-366 103,-366"/>
<polygon fill="white" stroke="none" points="106,-369 106,-413 153,-413 153,-369 106,-369"/>
<text text-anchor="start" x="110.5" y="-387.3" font-family="Times,serif" font-size="14.00">DATA</text>
<polygon fill="none" stroke="black" points="158,-366 158,-416 235,-416 235,-366 158,-366"/>
<polygon fill="white" stroke="none" points="161,-369 161,-413 232,-413 232,-369 161,-369"/>
<text text-anchor="start" x="167" y="-397.8" font-family="Times,serif" font-size="14.00">REQUIRE</text>
<g id="a_node3_6"><a xlink:href="https://www.lapin.fr/I1" xlink:title="&lt;TABLE&gt;">
<text text-anchor="start" x="172" y="-376.8" font-family="Times,serif" font-size="14.00">I1</text>
</a>
</g>
<text text-anchor="start" x="200.5" y="-376.8" font-family="Times,serif" font-size="14.00">a</text>
<polygon fill="#e2dcbc" stroke="none" points="215,-371 215,-390 230,-390 230,-371 215,-371"/>
<text text-anchor="start" x="220.5" y="-376.8" font-family="Times,serif" font-size="14.00"> </text>
<polygon fill="none" stroke="black" points="24,-363.5 24,-442.5 238,-442.5 238,-363.5 24,-363.5"/>
</g>
<!-- p_s2 -->
<g id="node8" class="node"><title>p_s2</title>
<ellipse fill="none" stroke="black" cx="285.5" cy="-380" rx="3.5" ry="3.5"/>
</g>
<!-- cb2&#45;&gt;p_s2 -->
<g id="edge5" class="edge"><title>cb2:a:e&#45;&gt;p_s2:w</title>
<path fill="none" stroke="#e2dcbc" stroke-width="2" d="M231,-380C253.667,-380 259.333,-380 282,-380"/>
</g>
<!-- cb3 -->
<g id="node4" class="node"><title>cb3</title>
<polygon fill="#e9b8f7" stroke="none" points="24,-203.5 24,-282.5 238,-282.5 238,-203.5 24,-203.5"/>
<g id="a_node4_7"><a xlink:href="https://www.lapin.fr/C4" xlink:title="&lt;TABLE&gt;">
<polygon fill="white" stroke="none" points="27,-258 27,-279 235,-279 235,-258 27,-258"/>
<polygon fill="none" stroke="black" points="27,-258 27,-279 235,-279 235,-258 27,-258"/>
<text text-anchor="start" x="109.5" y="-264.8" font-family="Times,serif" font-size="14.00">C4 cb3 </text>
</a>
</g>
<polygon fill="none" stroke="black" points="27,-206 27,-256 101,-256 101,-206 27,-206"/>
<polygon fill="white" stroke="none" points="30,-209 30,-253 98,-253 98,-209 30,-209"/>
<text text-anchor="start" x="34.5" y="-227.3" font-family="Times,serif" font-size="14.00">PROVIDE</text>
<polygon fill="none" stroke="black" points="103,-206 103,-256 156,-256 156,-206 103,-206"/>
<polygon fill="white" stroke="none" points="106,-209 106,-253 153,-253 153,-209 106,-209"/>
<text text-anchor="start" x="110.5" y="-227.3" font-family="Times,serif" font-size="14.00">DATA</text>
<polygon fill="none" stroke="black" points="158,-206 158,-256 235,-256 235,-206 158,-206"/>
<polygon fill="white" stroke="none" points="161,-209 161,-253 232,-253 232,-209 161,-209"/>
<text text-anchor="start" x="167" y="-237.8" font-family="Times,serif" font-size="14.00">REQUIRE</text>
<g id="a_node4_8"><a xlink:href="https://www.lapin.fr/I1" xlink:title="&lt;TABLE&gt;">
<text text-anchor="start" x="172" y="-216.8" font-family="Times,serif" font-size="14.00">I1</text>
</a>
</g>
<text text-anchor="start" x="200.5" y="-216.8" font-family="Times,serif" font-size="14.00">a</text>
<polygon fill="#e2dcbc" stroke="none" points="215,-211 215,-230 230,-230 230,-211 215,-211"/>
<text text-anchor="start" x="220.5" y="-216.8" font-family="Times,serif" font-size="14.00"> </text>
<polygon fill="none" stroke="black" points="24,-203.5 24,-282.5 238,-282.5 238,-203.5 24,-203.5"/>
</g>
<!-- p_s3 -->
<g id="node10" class="node"><title>p_s3</title>
<ellipse fill="none" stroke="black" cx="285.5" cy="-301" rx="3.5" ry="3.5"/>
</g>
<!-- cb3&#45;&gt;p_s3 -->
<g id="edge8" class="edge"><title>cb3:a:e&#45;&gt;p_s3:w</title>
<path fill="none" stroke="#e2dcbc" stroke-width="2" d="M231,-220C273.541,-220 239.459,-301 282,-301"/>
</g>
<!-- cb4 -->
<g id="node5" class="node"><title>cb4</title>
<polygon fill="#e9b8f7" stroke="none" points="24,-43.5 24,-122.5 238,-122.5 238,-43.5 24,-43.5"/>
<g id="a_node5_9"><a xlink:href="https://www.lapin.fr/C4" xlink:title="&lt;TABLE&gt;">
<polygon fill="white" stroke="none" points="27,-98 27,-119 235,-119 235,-98 27,-98"/>
<polygon fill="none" stroke="black" points="27,-98 27,-119 235,-119 235,-98 27,-98"/>
<text text-anchor="start" x="109.5" y="-104.8" font-family="Times,serif" font-size="14.00">C4 cb4 </text>
</a>
</g>
<polygon fill="none" stroke="black" points="27,-46 27,-96 101,-96 101,-46 27,-46"/>
<polygon fill="white" stroke="none" points="30,-49 30,-93 98,-93 98,-49 30,-49"/>
<text text-anchor="start" x="34.5" y="-67.3" font-family="Times,serif" font-size="14.00">PROVIDE</text>
<polygon fill="none" stroke="black" points="103,-46 103,-96 156,-96 156,-46 103,-46"/>
<polygon fill="white" stroke="none" points="106,-49 106,-93 153,-93 153,-49 106,-49"/>
<text text-anchor="start" x="110.5" y="-67.3" font-family="Times,serif" font-size="14.00">DATA</text>
<polygon fill="none" stroke="black" points="158,-46 158,-96 235,-96 235,-46 158,-46"/>
<polygon fill="white" stroke="none" points="161,-49 161,-93 232,-93 232,-49 161,-49"/>
<text text-anchor="start" x="167" y="-77.8" font-family="Times,serif" font-size="14.00">REQUIRE</text>
<g id="a_node5_10"><a xlink:href="https://www.lapin.fr/I1" xlink:title="&lt;TABLE&gt;">
<text text-anchor="start" x="172" y="-56.8" font-family="Times,serif" font-size="14.00">I1</text>
</a>
</g>
<text text-anchor="start" x="200.5" y="-56.8" font-family="Times,serif" font-size="14.00">a</text>
<polygon fill="#e2dcbc" stroke="none" points="215,-51 215,-70 230,-70 230,-51 215,-51"/>
<text text-anchor="start" x="220.5" y="-56.8" font-family="Times,serif" font-size="14.00"> </text>
<polygon fill="none" stroke="black" points="24,-43.5 24,-122.5 238,-122.5 238,-43.5 24,-43.5"/>
</g>
<!-- p_s4 -->
<g id="node12" class="node"><title>p_s4</title>
<ellipse fill="none" stroke="black" cx="285.5" cy="-141" rx="3.5" ry="3.5"/>
</g>
<!-- cb4&#45;&gt;p_s4 -->
<g id="edge11" class="edge"><title>cb4:a:e&#45;&gt;p_s4:w</title>
<path fill="none" stroke="#e2dcbc" stroke-width="2" d="M231,-60C273.541,-60 239.459,-141 282,-141"/>
</g>
<!-- p_s1&#45;&gt;ca -->
<g id="edge3" class="edge"><title>p_s1:e&#45;&gt;ca:a:w</title>
<path fill="none" stroke="#e2dcbc" stroke-width="2" d="M289,-540C376.004,-540 252.996,-351 340,-351"/>
</g>
<!-- s1 -->
<g id="node7" class="node"><title>s1</title>
<polygon fill="white" stroke="none" points="94.5,-629.5 94.5,-656.5 167.5,-656.5 167.5,-629.5 94.5,-629.5"/>
<g id="a_node7_11"><a xlink:href="http://lapin.com/Simple" xlink:title="&lt;TABLE&gt;">
<polygon fill="none" stroke="black" points="98,-632 98,-653 144,-653 144,-632 98,-632"/>
<text text-anchor="start" x="101" y="-638.8" font-family="Times,serif" font-size="14.00">Simple</text>
</a>
</g>
<polygon fill="none" stroke="black" points="146,-632 146,-653 165,-653 165,-632 146,-632"/>
<text text-anchor="start" x="149" y="-638.8" font-family="Times,serif" font-size="14.00">s1</text>
<polygon fill="none" stroke="black" points="94.5,-629.5 94.5,-656.5 167.5,-656.5 167.5,-629.5 94.5,-629.5"/>
</g>
<!-- s1&#45;&gt;p_s1 -->
<g id="edge1" class="edge"><title>s1:s&#45;&gt;p_s1:n</title>
<path fill="none" stroke="black" stroke-dasharray="1,5" d="M131,-624C131,-611.191 235.191,-622.872 246,-616 276.474,-596.627 285.5,-581.11 285.5,-545"/>
</g>
<!-- p_s2&#45;&gt;ca -->
<g id="edge6" class="edge"><title>p_s2:e&#45;&gt;ca:a:w</title>
<path fill="none" stroke="#e2dcbc" stroke-width="2" d="M289,-380C315.075,-380 313.925,-351 340,-351"/>
</g>
<!-- s2 -->
<g id="node9" class="node"><title>s2</title>
<polygon fill="white" stroke="none" points="94.5,-469.5 94.5,-496.5 167.5,-496.5 167.5,-469.5 94.5,-469.5"/>
<g id="a_node9_12"><a xlink:href="http://lapin.com/Simple" xlink:title="&lt;TABLE&gt;">
<polygon fill="none" stroke="black" points="98,-472 98,-493 144,-493 144,-472 98,-472"/>
<text text-anchor="start" x="101" y="-478.8" font-family="Times,serif" font-size="14.00">Simple</text>
</a>
</g>
<polygon fill="none" stroke="black" points="146,-472 146,-493 165,-493 165,-472 146,-472"/>
<text text-anchor="start" x="149" y="-478.8" font-family="Times,serif" font-size="14.00">s2</text>
<polygon fill="none" stroke="black" points="94.5,-469.5 94.5,-496.5 167.5,-496.5 167.5,-469.5 94.5,-469.5"/>
</g>
<!-- s2&#45;&gt;p_s2 -->
<g id="edge4" class="edge"><title>s2:s&#45;&gt;p_s2:n</title>
<path fill="none" stroke="black" stroke-dasharray="1,5" d="M131,-464C131,-451.191 235.191,-462.872 246,-456 276.474,-436.627 285.5,-421.11 285.5,-385"/>
</g>
<!-- p_s3&#45;&gt;ca -->
<g id="edge9" class="edge"><title>p_s3:e&#45;&gt;ca:b:w</title>
<path fill="none" stroke="#e2dcbc" stroke-width="2" d="M289,-301C315.075,-301 313.925,-330 340,-330"/>
</g>
<!-- s3 -->
<g id="node11" class="node"><title>s3</title>
<polygon fill="white" stroke="none" points="94.5,-309.5 94.5,-336.5 167.5,-336.5 167.5,-309.5 94.5,-309.5"/>
<g id="a_node11_13"><a xlink:href="http://lapin.com/Simple" xlink:title="&lt;TABLE&gt;">
<polygon fill="none" stroke="black" points="98,-312 98,-333 144,-333 144,-312 98,-312"/>
<text text-anchor="start" x="101" y="-318.8" font-family="Times,serif" font-size="14.00">Simple</text>
</a>
</g>
<polygon fill="none" stroke="black" points="146,-312 146,-333 165,-333 165,-312 146,-312"/>
<text text-anchor="start" x="149" y="-318.8" font-family="Times,serif" font-size="14.00">s3</text>
<polygon fill="none" stroke="black" points="94.5,-309.5 94.5,-336.5 167.5,-336.5 167.5,-309.5 94.5,-309.5"/>
</g>
<!-- s3&#45;&gt;p_s3 -->
<g id="edge7" class="edge"><title>s3:s&#45;&gt;p_s3:n</title>
<path fill="none" stroke="black" stroke-dasharray="1,5" d="M131,-304C131,-286.832 285.5,-323.168 285.5,-306"/>
</g>
<!-- p_s4&#45;&gt;ca -->
<g id="edge12" class="edge"><title>p_s4:e&#45;&gt;ca:b:w</title>
<path fill="none" stroke="#e2dcbc" stroke-width="2" d="M289,-141C376.004,-141 252.996,-330 340,-330"/>
</g>
<!-- s4 -->
<g id="node13" class="node"><title>s4</title>
<polygon fill="white" stroke="none" points="94.5,-149.5 94.5,-176.5 167.5,-176.5 167.5,-149.5 94.5,-149.5"/>
<g id="a_node13_14"><a xlink:href="http://lapin.com/Simple" xlink:title="&lt;TABLE&gt;">
<polygon fill="none" stroke="black" points="98,-152 98,-173 144,-173 144,-152 98,-152"/>
<text text-anchor="start" x="101" y="-158.8" font-family="Times,serif" font-size="14.00">Simple</text>
</a>
</g>
<polygon fill="none" stroke="black" points="146,-152 146,-173 165,-173 165,-152 146,-152"/>
<text text-anchor="start" x="149" y="-158.8" font-family="Times,serif" font-size="14.00">s4</text>
<polygon fill="none" stroke="black" points="94.5,-149.5 94.5,-176.5 167.5,-176.5 167.5,-149.5 94.5,-149.5"/>
</g>
<!-- s4&#45;&gt;p_s4 -->
<g id="edge10" class="edge"><title>s4:s&#45;&gt;p_s4:n</title>
<path fill="none" stroke="black" stroke-dasharray="1,5" d="M131,-144C131,-126.832 285.5,-163.168 285.5,-146"/>
</g>
</g>
</svg>
