<?xml version="1.0" encoding="UTF-8" standalone="no"?>
<!DOCTYPE svg PUBLIC "-//W3C//DTD SVG 1.1//EN"
 "http://www.w3.org/Graphics/SVG/1.1/DTD/svg11.dtd">
<!-- Generated by graphviz version 2.38.0 (20140413.2041)
 -->
<!-- Title: %3 Pages: 1 -->
<svg width="1427pt" height="531pt"
 viewBox="0.00 0.00 1427.00 531.00" xmlns="http://www.w3.org/2000/svg" xmlns:xlink="http://www.w3.org/1999/xlink">
<g id="graph0" class="graph" transform="scale(1 1) rotate(0) translate(4 527)">
<title>%3</title>
<polygon fill="white" stroke="none" points="-4,4 -4,-527 1423,-527 1423,4 -4,4"/>
<text text-anchor="middle" x="709.5" y="-7.8" font-family="Times,serif" font-size="14.00">D3</text>
<g id="clust1" class="cluster"><title>clusterCOMPONENT</title>
<polygon fill="none" stroke="black" points="189,-31 189,-515 1250,-515 1250,-31 189,-31"/>
<text text-anchor="middle" x="719.5" y="-499.8" font-family="Times,serif" font-size="14.00">COMPONENT</text>
</g>
<g id="clust2" class="cluster"><title>clusterin</title>
<polygon fill="none" stroke="black" points="8,-120 8,-393 168,-393 168,-120 8,-120"/>
<text text-anchor="middle" x="88" y="-377.8" font-family="Times,serif" font-size="14.00">LINK IN</text>
</g>
<g id="clust3" class="cluster"><title>clusterout</title>
<polygon fill="none" stroke="black" points="1271,-44 1271,-173 1411,-173 1411,-44 1271,-44"/>
<text text-anchor="middle" x="1341" y="-157.8" font-family="Times,serif" font-size="14.00">LINK OUT</text>
</g>
<g id="clust4" class="cluster"><title>clusterdirect</title>
<polygon fill="none" stroke="black" points="35.5,-423 35.5,-498 140.5,-498 140.5,-423 35.5,-423"/>
<text text-anchor="middle" x="88" y="-482.8" font-family="Times,serif" font-size="14.00">LINK DIRECT</text>
</g>
<!-- ca -->
<g id="node1" class="node"><title>ca</title>
<g id="a_node1_0"><a xlink:href="https://www.lapin.fr/C4" xlink:title="&lt;TABLE&gt;">
<polygon fill="none" stroke="black" points="330,-455 330,-476 411,-476 411,-455 330,-455"/>
<text text-anchor="start" x="352.5" y="-461.8" font-family="Times,serif" font-size="14.00">C4 ca </text>
</a>
</g>
<polygon fill="none" stroke="black" points="330,-403 330,-453 407,-453 407,-403 330,-403"/>
<text text-anchor="start" x="339" y="-434.8" font-family="Times,serif" font-size="14.00">REQUIRE</text>
<g id="a_node1_1"><a xlink:href="https://www.lapin.fr/I1" xlink:title="&lt;TABLE&gt;">
<text text-anchor="start" x="345" y="-413.8" font-family="Times,serif" font-size="14.00">I1</text>
</a>
</g>
<text text-anchor="start" x="375" y="-413.8" font-family="Times,serif" font-size="14.00">a</text>
<polygon fill="none" stroke="black" points="326.5,-400.5 326.5,-479.5 413.5,-479.5 413.5,-400.5 326.5,-400.5"/>
</g>
<!-- cc -->
<g id="node5" class="node"><title>cc</title>
<g id="a_node5_2"><a xlink:href="https://www.lapin.fr/C6" xlink:title="&lt;TABLE&gt;">
<polygon fill="none" stroke="black" points="603.5,-455 603.5,-476 836.5,-476 836.5,-455 603.5,-455"/>
<text text-anchor="start" x="702" y="-461.8" font-family="Times,serif" font-size="14.00">C6 cc </text>
</a>
</g>
<polygon fill="none" stroke="black" points="603.5,-361 603.5,-453 684.5,-453 684.5,-361 603.5,-361"/>
<text text-anchor="start" x="612.5" y="-424.3" font-family="Times,serif" font-size="14.00"> PROVIDE</text>
<g id="a_node5_3"><a xlink:href="https://www.lapin.fr/I1" xlink:title="&lt;TABLE&gt;">
<text text-anchor="start" x="639" y="-382.3" font-family="Times,serif" font-size="14.00">I1</text>
</a>
</g>
<text text-anchor="start" x="666" y="-382.3" font-family="Times,serif" font-size="14.00">a</text>
<polygon fill="none" stroke="black" points="686.5,-361 686.5,-453 757.5,-453 757.5,-361 686.5,-361"/>
<text text-anchor="start" x="703" y="-434.8" font-family="Times,serif" font-size="14.00">DATA</text>
<g id="a_node5_4"><a xlink:href="https://www.lapin.fr/int" xlink:title="&lt;TABLE&gt;">
<text text-anchor="start" x="693.5" y="-413.8" font-family="Times,serif" font-size="14.00">int</text>
</a>
</g>
<text text-anchor="start" x="714.5" y="-413.8" font-family="Times,serif" font-size="14.00">v1</text>
<text text-anchor="start" x="734.5" y="-413.8" font-family="Times,serif" font-size="14.00">=6</text>
<g id="a_node5_5"><a xlink:href="https://www.lapin.fr/int" xlink:title="&lt;TABLE&gt;">
<text text-anchor="start" x="693.5" y="-392.8" font-family="Times,serif" font-size="14.00">int</text>
</a>
</g>
<text text-anchor="start" x="714.5" y="-392.8" font-family="Times,serif" font-size="14.00">v2</text>
<text text-anchor="start" x="734.5" y="-392.8" font-family="Times,serif" font-size="14.00">=6</text>
<g id="a_node5_6"><a xlink:href="https://www.lapin.fr/int" xlink:title="&lt;TABLE&gt;">
<text text-anchor="start" x="693.5" y="-371.8" font-family="Times,serif" font-size="14.00">int</text>
</a>
</g>
<text text-anchor="start" x="714.5" y="-371.8" font-family="Times,serif" font-size="14.00">v3</text>
<text text-anchor="start" x="734.5" y="-371.8" font-family="Times,serif" font-size="14.00">=6</text>
<polygon fill="none" stroke="black" points="759.5,-361 759.5,-453 836.5,-453 836.5,-361 759.5,-361"/>
<text text-anchor="start" x="768.5" y="-424.3" font-family="Times,serif" font-size="14.00">REQUIRE</text>
<g id="a_node5_7"><a xlink:href="https://www.lapin.fr/I1" xlink:title="&lt;TABLE&gt;">
<text text-anchor="start" x="774.5" y="-382.3" font-family="Times,serif" font-size="14.00">I1</text>
</a>
</g>
<text text-anchor="start" x="804.5" y="-382.3" font-family="Times,serif" font-size="14.00">b</text>
<polygon fill="none" stroke="black" points="600,-358.5 600,-479.5 839,-479.5 839,-358.5 600,-358.5"/>
</g>
<!-- ca&#45;&gt;cc -->
<g id="edge7" class="edge"><title>ca:a:e&#45;&gt;cc:a:w</title>
<path fill="none" stroke="black" d="M403,-417C491.426,-417 513.897,-388.316 597.299,-386.131"/>
<polygon fill="black" stroke="black" points="597.546,-389.629 607.5,-386 597.456,-382.629 597.546,-389.629"/>
<text text-anchor="middle" x="567.5" y="-391.8" font-family="Times,serif" font-size="14.00">s1</text>
</g>
<!-- cb -->
<g id="node2" class="node"><title>cb</title>
<g id="a_node2_8"><a xlink:href="https://www.lapin.fr/C5" xlink:title="&lt;TABLE&gt;">
<polygon fill="none" stroke="black" points="907,-424 907,-445 1231,-445 1231,-424 907,-424"/>
<text text-anchor="start" x="1050.5" y="-430.8" font-family="Times,serif" font-size="14.00">C5 cb </text>
</a>
</g>
<polygon fill="none" stroke="black" points="907,-372 907,-422 988,-422 988,-372 907,-372"/>
<text text-anchor="start" x="916" y="-403.8" font-family="Times,serif" font-size="14.00"> PROVIDE</text>
<g id="a_node2_9"><a xlink:href="https://www.lapin.fr/I1" xlink:title="&lt;TABLE&gt;">
<text text-anchor="start" x="942.5" y="-382.8" font-family="Times,serif" font-size="14.00">I1</text>
</a>
</g>
<text text-anchor="start" x="969.5" y="-382.8" font-family="Times,serif" font-size="14.00">a</text>
<polygon fill="none" stroke="black" points="990,-372 990,-422 1229,-422 1229,-372 990,-372"/>
<text text-anchor="start" x="1090.5" y="-403.8" font-family="Times,serif" font-size="14.00">DATA</text>
<g id="a_node2_10"><a xlink:href="https://www.lapin.fr/Pair" xlink:title="&lt;TABLE&gt;">
<text text-anchor="start" x="997" y="-382.8" font-family="Times,serif" font-size="14.00">Pair</text>
</a>
</g>
<text text-anchor="start" x="1025" y="-382.8" font-family="Times,serif" font-size="14.00">p</text>
<text text-anchor="start" x="1038" y="-382.8" font-family="Times,serif" font-size="14.00">=/*WARNING NO DEFAULT*/</text>
<polygon fill="none" stroke="black" points="904,-369.5 904,-448.5 1234,-448.5 1234,-369.5 904,-369.5"/>
</g>
<!-- ca2 -->
<g id="node3" class="node"><title>ca2</title>
<g id="a_node3_11"><a xlink:href="https://www.lapin.fr/C4" xlink:title="&lt;TABLE&gt;">
<polygon fill="none" stroke="black" points="330,-98 330,-119 411,-119 411,-98 330,-98"/>
<text text-anchor="start" x="349" y="-104.8" font-family="Times,serif" font-size="14.00">C4 ca2 </text>
</a>
</g>
<polygon fill="none" stroke="black" points="330,-46 330,-96 407,-96 407,-46 330,-46"/>
<text text-anchor="start" x="339" y="-77.8" font-family="Times,serif" font-size="14.00">REQUIRE</text>
<g id="a_node3_12"><a xlink:href="https://www.lapin.fr/I1" xlink:title="&lt;TABLE&gt;">
<text text-anchor="start" x="345" y="-56.8" font-family="Times,serif" font-size="14.00">I1</text>
</a>
</g>
<text text-anchor="start" x="375" y="-56.8" font-family="Times,serif" font-size="14.00">a</text>
<polygon fill="none" stroke="black" points="326.5,-43.5 326.5,-122.5 413.5,-122.5 413.5,-43.5 326.5,-43.5"/>
</g>
<!-- s3 -->
<g id="node11" class="node"><title>s3</title>
<g id="a_node11_13"><a xlink:href="http://lapin.com/Complex_out" xlink:title="&lt;TABLE&gt;">
<polygon fill="none" stroke="black" points="1290,-59 1290,-80 1371,-80 1371,-59 1290,-59"/>
<text text-anchor="start" x="1293" y="-65.8" font-family="Times,serif" font-size="14.00">Complex_out</text>
</a>
</g>
<polygon fill="none" stroke="black" points="1373,-59 1373,-80 1392,-80 1392,-59 1373,-59"/>
<text text-anchor="start" x="1376" y="-65.8" font-family="Times,serif" font-size="14.00">s3</text>
<polygon fill="none" stroke="black" points="1287,-56.5 1287,-83.5 1395,-83.5 1395,-56.5 1287,-56.5"/>
</g>
<!-- ca2&#45;&gt;s3 -->
<g id="edge2" class="edge"><title>ca2:a:e&#45;&gt;s3:w</title>
<path fill="none" stroke="black" d="M403,-60C788.496,-60 887.355,-69.825 1267.81,-69.9977"/>
<polygon fill="black" stroke="black" points="1268,-73.4976 1278,-70 1268,-66.4976 1268,-73.4976"/>
</g>
<!-- cb2 -->
<g id="node4" class="node"><title>cb2</title>
<g id="a_node4_14"><a xlink:href="https://www.lapin.fr/C5" xlink:title="&lt;TABLE&gt;">
<polygon fill="none" stroke="black" points="208,-350 208,-371 532,-371 532,-350 208,-350"/>
<text text-anchor="start" x="348.5" y="-356.8" font-family="Times,serif" font-size="14.00">C5 cb2 </text>
</a>
</g>
<polygon fill="none" stroke="black" points="208,-298 208,-348 289,-348 289,-298 208,-298"/>
<text text-anchor="start" x="217" y="-329.8" font-family="Times,serif" font-size="14.00"> PROVIDE</text>
<g id="a_node4_15"><a xlink:href="https://www.lapin.fr/I1" xlink:title="&lt;TABLE&gt;">
<text text-anchor="start" x="243.5" y="-308.8" font-family="Times,serif" font-size="14.00">I1</text>
</a>
</g>
<text text-anchor="start" x="270.5" y="-308.8" font-family="Times,serif" font-size="14.00">a</text>
<polygon fill="none" stroke="black" points="291,-298 291,-348 530,-348 530,-298 291,-298"/>
<text text-anchor="start" x="391.5" y="-329.8" font-family="Times,serif" font-size="14.00">DATA</text>
<g id="a_node4_16"><a xlink:href="https://www.lapin.fr/Pair" xlink:title="&lt;TABLE&gt;">
<text text-anchor="start" x="298" y="-308.8" font-family="Times,serif" font-size="14.00">Pair</text>
</a>
</g>
<text text-anchor="start" x="326" y="-308.8" font-family="Times,serif" font-size="14.00">p</text>
<text text-anchor="start" x="339" y="-308.8" font-family="Times,serif" font-size="14.00">=/*WARNING NO DEFAULT*/</text>
<polygon fill="none" stroke="black" points="205,-295.5 205,-374.5 535,-374.5 535,-295.5 205,-295.5"/>
</g>
<!-- cc&#45;&gt;cb -->
<g id="edge8" class="edge"><title>cc:b:e&#45;&gt;cb:a:w</title>
<path fill="none" stroke="black" d="M832.5,-386C863.709,-386 873.98,-386 900.773,-386"/>
<polygon fill="black" stroke="black" points="901,-389.5 911,-386 901,-382.5 901,-389.5"/>
<text text-anchor="middle" x="871.5" y="-389.8" font-family="Times,serif" font-size="14.00">s1</text>
</g>
<!-- cc2 -->
<g id="node6" class="node"><title>cc2</title>
<g id="a_node6_17"><a xlink:href="https://www.lapin.fr/C6" xlink:title="&lt;TABLE&gt;">
<polygon fill="none" stroke="black" points="252,-245 252,-266 489,-266 489,-245 252,-245"/>
<text text-anchor="start" x="349" y="-251.8" font-family="Times,serif" font-size="14.00">C6 cc2 </text>
</a>
</g>
<polygon fill="none" stroke="black" points="252,-151 252,-243 333,-243 333,-151 252,-151"/>
<text text-anchor="start" x="261" y="-214.3" font-family="Times,serif" font-size="14.00"> PROVIDE</text>
<g id="a_node6_18"><a xlink:href="https://www.lapin.fr/I1" xlink:title="&lt;TABLE&gt;">
<text text-anchor="start" x="287.5" y="-172.3" font-family="Times,serif" font-size="14.00">I1</text>
</a>
</g>
<text text-anchor="start" x="314.5" y="-172.3" font-family="Times,serif" font-size="14.00">a</text>
<polygon fill="none" stroke="black" points="335,-151 335,-243 410,-243 410,-151 335,-151"/>
<text text-anchor="start" x="353.5" y="-224.8" font-family="Times,serif" font-size="14.00">DATA</text>
<g id="a_node6_19"><a xlink:href="https://www.lapin.fr/int" xlink:title="&lt;TABLE&gt;">
<text text-anchor="start" x="342" y="-203.8" font-family="Times,serif" font-size="14.00">int</text>
</a>
</g>
<text text-anchor="start" x="363" y="-203.8" font-family="Times,serif" font-size="14.00">v1</text>
<text text-anchor="start" x="385" y="-203.8" font-family="Times,serif" font-size="14.00">=9</text>
<g id="a_node6_20"><a xlink:href="https://www.lapin.fr/int" xlink:title="&lt;TABLE&gt;">
<text text-anchor="start" x="342" y="-182.8" font-family="Times,serif" font-size="14.00">int</text>
</a>
</g>
<text text-anchor="start" x="363" y="-182.8" font-family="Times,serif" font-size="14.00">v2</text>
<text text-anchor="start" x="385" y="-182.8" font-family="Times,serif" font-size="14.00">=0</text>
<g id="a_node6_21"><a xlink:href="https://www.lapin.fr/int" xlink:title="&lt;TABLE&gt;">
<text text-anchor="start" x="342" y="-161.8" font-family="Times,serif" font-size="14.00">int</text>
</a>
</g>
<text text-anchor="start" x="363" y="-161.8" font-family="Times,serif" font-size="14.00">v3</text>
<text text-anchor="start" x="383" y="-161.8" font-family="Times,serif" font-size="14.00">=&#45;1</text>
<polygon fill="none" stroke="black" points="412,-151 412,-243 489,-243 489,-151 412,-151"/>
<text text-anchor="start" x="421" y="-214.3" font-family="Times,serif" font-size="14.00">REQUIRE</text>
<g id="a_node6_22"><a xlink:href="https://www.lapin.fr/I1" xlink:title="&lt;TABLE&gt;">
<text text-anchor="start" x="427" y="-172.3" font-family="Times,serif" font-size="14.00">I1</text>
</a>
</g>
<text text-anchor="start" x="457" y="-172.3" font-family="Times,serif" font-size="14.00">b</text>
<polygon fill="none" stroke="black" points="248.5,-148.5 248.5,-269.5 491.5,-269.5 491.5,-148.5 248.5,-148.5"/>
</g>
<!-- cc3 -->
<g id="node8" class="node"><title>cc3</title>
<g id="a_node8_23"><a xlink:href="https://www.lapin.fr/C6" xlink:title="&lt;TABLE&gt;">
<polygon fill="none" stroke="black" points="603.5,-210 603.5,-231 836.5,-231 836.5,-210 603.5,-210"/>
<text text-anchor="start" x="698.5" y="-216.8" font-family="Times,serif" font-size="14.00">C6 cc3 </text>
</a>
</g>
<polygon fill="none" stroke="black" points="603.5,-116 603.5,-208 684.5,-208 684.5,-116 603.5,-116"/>
<text text-anchor="start" x="612.5" y="-179.3" font-family="Times,serif" font-size="14.00"> PROVIDE</text>
<g id="a_node8_24"><a xlink:href="https://www.lapin.fr/I1" xlink:title="&lt;TABLE&gt;">
<text text-anchor="start" x="639" y="-137.3" font-family="Times,serif" font-size="14.00">I1</text>
</a>
</g>
<text text-anchor="start" x="666" y="-137.3" font-family="Times,serif" font-size="14.00">a</text>
<polygon fill="none" stroke="black" points="686.5,-116 686.5,-208 757.5,-208 757.5,-116 686.5,-116"/>
<text text-anchor="start" x="703" y="-189.8" font-family="Times,serif" font-size="14.00">DATA</text>
<g id="a_node8_25"><a xlink:href="https://www.lapin.fr/int" xlink:title="&lt;TABLE&gt;">
<text text-anchor="start" x="693.5" y="-168.8" font-family="Times,serif" font-size="14.00">int</text>
</a>
</g>
<text text-anchor="start" x="714.5" y="-168.8" font-family="Times,serif" font-size="14.00">v1</text>
<text text-anchor="start" x="734.5" y="-168.8" font-family="Times,serif" font-size="14.00">=9</text>
<g id="a_node8_26"><a xlink:href="https://www.lapin.fr/int" xlink:title="&lt;TABLE&gt;">
<text text-anchor="start" x="693.5" y="-147.8" font-family="Times,serif" font-size="14.00">int</text>
</a>
</g>
<text text-anchor="start" x="714.5" y="-147.8" font-family="Times,serif" font-size="14.00">v2</text>
<text text-anchor="start" x="734.5" y="-147.8" font-family="Times,serif" font-size="14.00">=0</text>
<g id="a_node8_27"><a xlink:href="https://www.lapin.fr/int" xlink:title="&lt;TABLE&gt;">
<text text-anchor="start" x="693.5" y="-126.8" font-family="Times,serif" font-size="14.00">int</text>
</a>
</g>
<text text-anchor="start" x="714.5" y="-126.8" font-family="Times,serif" font-size="14.00">v3</text>
<text text-anchor="start" x="734.5" y="-126.8" font-family="Times,serif" font-size="14.00">=6</text>
<polygon fill="none" stroke="black" points="759.5,-116 759.5,-208 836.5,-208 836.5,-116 759.5,-116"/>
<text text-anchor="start" x="768.5" y="-179.3" font-family="Times,serif" font-size="14.00">REQUIRE</text>
<g id="a_node8_28"><a xlink:href="https://www.lapin.fr/I1" xlink:title="&lt;TABLE&gt;">
<text text-anchor="start" x="774.5" y="-137.3" font-family="Times,serif" font-size="14.00">I1</text>
</a>
</g>
<text text-anchor="start" x="804.5" y="-137.3" font-family="Times,serif" font-size="14.00">b</text>
<polygon fill="none" stroke="black" points="600,-113.5 600,-234.5 839,-234.5 839,-113.5 600,-113.5"/>
</g>
<!-- cc2&#45;&gt;cc3 -->
<g id="edge5" class="edge"><title>cc2:b:e&#45;&gt;cc3:a:w</title>
<path fill="none" stroke="black" d="M485,-176C538.084,-176 549.535,-145.238 597.415,-141.393"/>
<polygon fill="black" stroke="black" points="597.644,-144.887 607.5,-141 597.371,-137.892 597.644,-144.887"/>
<text text-anchor="middle" x="567.5" y="-153.8" font-family="Times,serif" font-size="14.00">s1</text>
</g>
<!-- cc4 -->
<g id="node7" class="node"><title>cc4</title>
<g id="a_node7_29"><a xlink:href="https://www.lapin.fr/C6" xlink:title="&lt;TABLE&gt;">
<polygon fill="none" stroke="black" points="951,-200 951,-221 1188,-221 1188,-200 951,-200"/>
<text text-anchor="start" x="1048" y="-206.8" font-family="Times,serif" font-size="14.00">C6 cc4 </text>
</a>
</g>
<polygon fill="none" stroke="black" points="951,-106 951,-198 1032,-198 1032,-106 951,-106"/>
<text text-anchor="start" x="960" y="-169.3" font-family="Times,serif" font-size="14.00"> PROVIDE</text>
<g id="a_node7_30"><a xlink:href="https://www.lapin.fr/I1" xlink:title="&lt;TABLE&gt;">
<text text-anchor="start" x="986.5" y="-127.3" font-family="Times,serif" font-size="14.00">I1</text>
</a>
</g>
<text text-anchor="start" x="1013.5" y="-127.3" font-family="Times,serif" font-size="14.00">a</text>
<polygon fill="none" stroke="black" points="1034,-106 1034,-198 1109,-198 1109,-106 1034,-106"/>
<text text-anchor="start" x="1052.5" y="-179.8" font-family="Times,serif" font-size="14.00">DATA</text>
<g id="a_node7_31"><a xlink:href="https://www.lapin.fr/int" xlink:title="&lt;TABLE&gt;">
<text text-anchor="start" x="1041" y="-158.8" font-family="Times,serif" font-size="14.00">int</text>
</a>
</g>
<text text-anchor="start" x="1062" y="-158.8" font-family="Times,serif" font-size="14.00">v1</text>
<text text-anchor="start" x="1084" y="-158.8" font-family="Times,serif" font-size="14.00">=9</text>
<g id="a_node7_32"><a xlink:href="https://www.lapin.fr/int" xlink:title="&lt;TABLE&gt;">
<text text-anchor="start" x="1041" y="-137.8" font-family="Times,serif" font-size="14.00">int</text>
</a>
</g>
<text text-anchor="start" x="1062" y="-137.8" font-family="Times,serif" font-size="14.00">v2</text>
<text text-anchor="start" x="1084" y="-137.8" font-family="Times,serif" font-size="14.00">=6</text>
<g id="a_node7_33"><a xlink:href="https://www.lapin.fr/int" xlink:title="&lt;TABLE&gt;">
<text text-anchor="start" x="1041" y="-116.8" font-family="Times,serif" font-size="14.00">int</text>
</a>
</g>
<text text-anchor="start" x="1062" y="-116.8" font-family="Times,serif" font-size="14.00">v3</text>
<text text-anchor="start" x="1082" y="-116.8" font-family="Times,serif" font-size="14.00">=&#45;1</text>
<polygon fill="none" stroke="black" points="1111,-106 1111,-198 1188,-198 1188,-106 1111,-106"/>
<text text-anchor="start" x="1120" y="-169.3" font-family="Times,serif" font-size="14.00">REQUIRE</text>
<g id="a_node7_34"><a xlink:href="https://www.lapin.fr/I1" xlink:title="&lt;TABLE&gt;">
<text text-anchor="start" x="1126" y="-127.3" font-family="Times,serif" font-size="14.00">I1</text>
</a>
</g>
<text text-anchor="start" x="1156" y="-127.3" font-family="Times,serif" font-size="14.00">b</text>
<polygon fill="none" stroke="black" points="947.5,-103.5 947.5,-224.5 1190.5,-224.5 1190.5,-103.5 947.5,-103.5"/>
</g>
<!-- s5 -->
<g id="node12" class="node"><title>s5</title>
<g id="a_node12_35"><a xlink:href="http://lapin.com/Complex_out" xlink:title="&lt;TABLE&gt;">
<polygon fill="none" stroke="black" points="1290,-113 1290,-134 1371,-134 1371,-113 1290,-113"/>
<text text-anchor="start" x="1293" y="-119.8" font-family="Times,serif" font-size="14.00">Complex_out</text>
</a>
</g>
<polygon fill="none" stroke="black" points="1373,-113 1373,-134 1392,-134 1392,-113 1373,-113"/>
<text text-anchor="start" x="1376" y="-119.8" font-family="Times,serif" font-size="14.00">s5</text>
<polygon fill="none" stroke="black" points="1287,-110.5 1287,-137.5 1395,-137.5 1395,-110.5 1287,-110.5"/>
</g>
<!-- cc4&#45;&gt;s5 -->
<g id="edge4" class="edge"><title>cc4:b:e&#45;&gt;s5:w</title>
<path fill="none" stroke="black" d="M1184,-131C1222.29,-131 1234.12,-125.151 1267.86,-124.146"/>
<polygon fill="black" stroke="black" points="1268.05,-127.644 1278,-124 1267.95,-120.645 1268.05,-127.644"/>
</g>
<!-- cc3&#45;&gt;cc4 -->
<g id="edge6" class="edge"><title>cc3:b:e&#45;&gt;cc4:a:w</title>
<path fill="none" stroke="black" d="M832.5,-141C883.605,-141 898.495,-132.248 944.931,-131.119"/>
<polygon fill="black" stroke="black" points="945.042,-134.618 955,-131 944.959,-127.619 945.042,-134.618"/>
<text text-anchor="middle" x="871.5" y="-142.8" font-family="Times,serif" font-size="14.00">s1</text>
</g>
<!-- s2 -->
<g id="node9" class="node"><title>s2</title>
<g id="a_node9_36"><a xlink:href="http://lapin.com/Complex_in" xlink:title="&lt;TABLE&gt;">
<polygon fill="none" stroke="black" points="27,-334 27,-355 114,-355 114,-334 27,-334"/>
<text text-anchor="start" x="36.5" y="-340.8" font-family="Times,serif" font-size="14.00">Complex_in</text>
</a>
</g>
<polygon fill="none" stroke="black" points="116,-334 116,-355 149,-355 149,-334 116,-334"/>
<text text-anchor="start" x="126" y="-340.8" font-family="Times,serif" font-size="14.00">s2</text>
<polygon fill="none" stroke="black" points="27,-261 27,-332 149,-332 149,-261 27,-261"/>
<text text-anchor="start" x="69" y="-313.8" font-family="Times,serif" font-size="14.00">DATA</text>
<g id="a_node9_37"><a xlink:href="https://www.lapin.fr/int" xlink:title="&lt;TABLE&gt;">
<text text-anchor="start" x="34.5" y="-292.8" font-family="Times,serif" font-size="14.00">int</text>
</a>
</g>
<text text-anchor="start" x="56.5" y="-292.8" font-family="Times,serif" font-size="14.00">name</text>
<text text-anchor="start" x="94" y="-292.8" font-family="Times,serif" font-size="14.00">=&quot;lapin&quot;</text>
<g id="a_node9_38"><a xlink:href="https://www.lapin.fr/int" xlink:title="&lt;TABLE&gt;">
<text text-anchor="start" x="34.5" y="-271.8" font-family="Times,serif" font-size="14.00">int</text>
</a>
</g>
<text text-anchor="start" x="61" y="-271.8" font-family="Times,serif" font-size="14.00">port</text>
<text text-anchor="start" x="110" y="-271.8" font-family="Times,serif" font-size="14.00">=0</text>
<polygon fill="none" stroke="black" points="24,-258 24,-358 152,-358 152,-258 24,-258"/>
</g>
<!-- s2&#45;&gt;cb2 -->
<g id="edge1" class="edge"><title>s2:e&#45;&gt;cb2:a:w</title>
<path fill="none" stroke="black" d="M161,-308C179.828,-308 186.855,-310.743 201.627,-311.686"/>
<polygon fill="black" stroke="black" points="201.899,-315.196 212,-312 202.11,-308.199 201.899,-315.196"/>
</g>
<!-- s4 -->
<g id="node10" class="node"><title>s4</title>
<g id="a_node10_39"><a xlink:href="http://lapin.com/Complex_in" xlink:title="&lt;TABLE&gt;">
<polygon fill="none" stroke="black" points="41,-208 41,-229 115,-229 115,-208 41,-208"/>
<text text-anchor="start" x="44" y="-214.8" font-family="Times,serif" font-size="14.00">Complex_in</text>
</a>
</g>
<polygon fill="none" stroke="black" points="117,-208 117,-229 136,-229 136,-208 117,-208"/>
<text text-anchor="start" x="120" y="-214.8" font-family="Times,serif" font-size="14.00">s4</text>
<polygon fill="none" stroke="black" points="41,-135 41,-206 136,-206 136,-135 41,-135"/>
<text text-anchor="start" x="69.5" y="-187.8" font-family="Times,serif" font-size="14.00">DATA</text>
<g id="a_node10_40"><a xlink:href="https://www.lapin.fr/int" xlink:title="&lt;TABLE&gt;">
<text text-anchor="start" x="49.5" y="-166.8" font-family="Times,serif" font-size="14.00">int</text>
</a>
</g>
<text text-anchor="start" x="73" y="-166.8" font-family="Times,serif" font-size="14.00">name</text>
<text text-anchor="start" x="112" y="-166.8" font-family="Times,serif" font-size="14.00">=0</text>
<g id="a_node10_41"><a xlink:href="https://www.lapin.fr/int" xlink:title="&lt;TABLE&gt;">
<text text-anchor="start" x="49.5" y="-145.8" font-family="Times,serif" font-size="14.00">int</text>
</a>
</g>
<text text-anchor="start" x="77.5" y="-145.8" font-family="Times,serif" font-size="14.00">port</text>
<text text-anchor="start" x="112" y="-145.8" font-family="Times,serif" font-size="14.00">=0</text>
<polygon fill="none" stroke="black" points="37.5,-132 37.5,-232 138.5,-232 138.5,-132 37.5,-132"/>
</g>
<!-- s4&#45;&gt;cc2 -->
<g id="edge3" class="edge"><title>s4:e&#45;&gt;cc2:a:w</title>
<path fill="none" stroke="black" d="M148,-182C192.506,-182 205.967,-176.858 245.865,-176.094"/>
<polygon fill="black" stroke="black" points="246.033,-179.593 256,-176 245.968,-172.593 246.033,-179.593"/>
</g>
<!-- s1 -->
<g id="node13" class="node"><title>s1</title>
<g id="a_node13_42"><a xlink:href="http://lapin.com/Simple" xlink:title="&lt;TABLE&gt;">
<polygon fill="none" stroke="black" points="55,-438 55,-459 101,-459 101,-438 55,-438"/>
<text text-anchor="start" x="58" y="-444.8" font-family="Times,serif" font-size="14.00">Simple</text>
</a>
</g>
<polygon fill="none" stroke="black" points="103,-438 103,-459 122,-459 122,-438 103,-438"/>
<text text-anchor="start" x="106" y="-444.8" font-family="Times,serif" font-size="14.00">s1</text>
<polygon fill="none" stroke="black" points="51.5,-435.5 51.5,-462.5 124.5,-462.5 124.5,-435.5 51.5,-435.5"/>
</g>
</g>
</svg>
