<?xml version="1.0" encoding="UTF-8" standalone="no"?>
<!DOCTYPE svg PUBLIC "-//W3C//DTD SVG 1.1//EN"
 "http://www.w3.org/Graphics/SVG/1.1/DTD/svg11.dtd">
<!-- Generated by graphviz version 2.38.0 (20140413.2041)
 -->
<!-- Title: %3 Pages: 1 -->
<svg width="1649pt" height="640pt"
 viewBox="0.00 0.00 1649.00 640.00" xmlns="http://www.w3.org/2000/svg" xmlns:xlink="http://www.w3.org/1999/xlink">
<g id="graph0" class="graph" transform="scale(1 1) rotate(0) translate(4 636)">
<title>%3</title>
<polygon fill="white" stroke="none" points="-4,4 -4,-636 1645,-636 1645,4 -4,4"/>
<text text-anchor="middle" x="820.5" y="-7.8" font-family="Times,serif" font-size="14.00">D3</text>
<g id="clust1" class="cluster"><title>clusterCOMPONENT</title>
<polygon fill="none" stroke="black" points="216,-31 216,-624 1473,-624 1473,-31 216,-31"/>
<text text-anchor="middle" x="844.5" y="-608.8" font-family="Times,serif" font-size="14.00">COMPONENTS</text>
</g>
<g id="clust2" class="cluster"><title>clusterin</title>
<polygon fill="none" stroke="black" points="8,-258 8,-531 196,-531 196,-258 8,-258"/>
<text text-anchor="middle" x="102" y="-515.8" font-family="Times,serif" font-size="14.00">LINKS IN</text>
</g>
<g id="clust3" class="cluster"><title>clusterout</title>
<polygon fill="none" stroke="black" points="1493,-136 1493,-265 1633,-265 1633,-136 1493,-136"/>
<text text-anchor="middle" x="1563" y="-249.8" font-family="Times,serif" font-size="14.00">LINKS OUT</text>
</g>
<!-- ca -->
<g id="node1" class="node"><title>ca</title>
<polygon fill="#e9b8f7" stroke="none" points="325,-148.5 325,-227.5 539,-227.5 539,-148.5 325,-148.5"/>
<g id="a_node1_0"><a xlink:href="https://www.lapin.fr/C4" xlink:title="&lt;TABLE&gt;">
<polygon fill="white" stroke="none" points="328,-203 328,-224 536,-224 536,-203 328,-203"/>
<polygon fill="none" stroke="black" points="328,-203 328,-224 536,-224 536,-203 328,-203"/>
<text text-anchor="start" x="414" y="-209.8" font-family="Times,serif" font-size="14.00">C4 ca </text>
</a>
</g>
<polygon fill="none" stroke="black" points="328,-151 328,-201 402,-201 402,-151 328,-151"/>
<polygon fill="white" stroke="none" points="331,-154 331,-198 399,-198 399,-154 331,-154"/>
<text text-anchor="start" x="335.5" y="-172.3" font-family="Times,serif" font-size="14.00">PROVIDE</text>
<polygon fill="none" stroke="black" points="404,-151 404,-201 457,-201 457,-151 404,-151"/>
<polygon fill="white" stroke="none" points="407,-154 407,-198 454,-198 454,-154 407,-154"/>
<text text-anchor="start" x="411.5" y="-172.3" font-family="Times,serif" font-size="14.00">DATA</text>
<polygon fill="none" stroke="black" points="459,-151 459,-201 536,-201 536,-151 459,-151"/>
<polygon fill="white" stroke="none" points="462,-154 462,-198 533,-198 533,-154 462,-154"/>
<text text-anchor="start" x="468" y="-182.8" font-family="Times,serif" font-size="14.00">REQUIRE</text>
<g id="a_node1_1"><a xlink:href="https://www.lapin.fr/I1" xlink:title="&lt;TABLE&gt;">
<text text-anchor="start" x="473" y="-161.8" font-family="Times,serif" font-size="14.00">I1</text>
</a>
</g>
<text text-anchor="start" x="501.5" y="-161.8" font-family="Times,serif" font-size="14.00">a</text>
<polygon fill="#e2dcbc" stroke="none" points="516,-156 516,-175 531,-175 531,-156 516,-156"/>
<text text-anchor="start" x="521.5" y="-161.8" font-family="Times,serif" font-size="14.00"> </text>
<polygon fill="none" stroke="black" points="325,-148.5 325,-227.5 539,-227.5 539,-148.5 325,-148.5"/>
</g>
<!-- p_sl3 -->
<g id="node13" class="node"><title>p_sl3</title>
<ellipse fill="none" stroke="black" cx="679.5" cy="-183" rx="3.5" ry="3.5"/>
</g>
<!-- ca&#45;&gt;p_sl3 -->
<g id="edge12" class="edge"><title>ca:a:e&#45;&gt;p_sl3:w</title>
<path fill="none" stroke="#e2dcbc" stroke-width="2" d="M532,-165C596.498,-165 611.502,-183 676,-183"/>
</g>
<!-- cb -->
<g id="node2" class="node"><title>cb</title>
<polygon fill="#fee4b8" stroke="none" points="1057,-222.5 1057,-301.5 1457,-301.5 1457,-222.5 1057,-222.5"/>
<g id="a_node2_2"><a xlink:href="https://www.lapin.fr/C5" xlink:title="&lt;TABLE&gt;">
<polygon fill="white" stroke="none" points="1060,-277 1060,-298 1454,-298 1454,-277 1060,-277"/>
<polygon fill="none" stroke="black" points="1060,-277 1060,-298 1454,-298 1454,-277 1060,-277"/>
<text text-anchor="start" x="1238.5" y="-283.8" font-family="Times,serif" font-size="14.00">C5 cb </text>
</a>
</g>
<polygon fill="none" stroke="black" points="1060,-225 1060,-275 1137,-275 1137,-225 1060,-225"/>
<polygon fill="white" stroke="none" points="1063,-228 1063,-272 1134,-272 1134,-228 1063,-228"/>
<text text-anchor="start" x="1069" y="-256.8" font-family="Times,serif" font-size="14.00">PROVIDE</text>
<polygon fill="#e2dcbc" stroke="none" points="1065,-230 1065,-249 1087,-249 1087,-230 1065,-230"/>
<text text-anchor="start" x="1074" y="-235.8" font-family="Times,serif" font-size="14.00"> </text>
<g id="a_node2_3"><a xlink:href="https://www.lapin.fr/I1" xlink:title="&lt;TABLE&gt;">
<text text-anchor="start" x="1094.5" y="-235.8" font-family="Times,serif" font-size="14.00">I1</text>
</a>
</g>
<text text-anchor="start" x="1119.5" y="-235.8" font-family="Times,serif" font-size="14.00">a</text>
<polygon fill="none" stroke="black" points="1139,-225 1139,-275 1378,-275 1378,-225 1139,-225"/>
<polygon fill="white" stroke="none" points="1142,-228 1142,-272 1375,-272 1375,-228 1142,-228"/>
<text text-anchor="start" x="1239.5" y="-256.8" font-family="Times,serif" font-size="14.00">DATA</text>
<g id="a_node2_4"><a xlink:href="https://www.lapin.fr/Pair" xlink:title="&lt;TABLE&gt;">
<text text-anchor="start" x="1146" y="-235.8" font-family="Times,serif" font-size="14.00">Pair</text>
</a>
</g>
<text text-anchor="start" x="1174" y="-235.8" font-family="Times,serif" font-size="14.00">p</text>
<text text-anchor="start" x="1187" y="-235.8" font-family="Times,serif" font-size="14.00">=/*WARNING NO DEFAULT*/</text>
<polygon fill="none" stroke="black" points="1380,-225 1380,-275 1454,-275 1454,-225 1380,-225"/>
<polygon fill="white" stroke="none" points="1383,-228 1383,-272 1451,-272 1451,-228 1383,-228"/>
<text text-anchor="start" x="1387.5" y="-246.3" font-family="Times,serif" font-size="14.00">REQUIRE</text>
<polygon fill="none" stroke="black" points="1057,-222.5 1057,-301.5 1457,-301.5 1457,-222.5 1057,-222.5"/>
</g>
<!-- ca2 -->
<g id="node3" class="node"><title>ca2</title>
<polygon fill="#e9b8f7" stroke="none" points="325,-43.5 325,-122.5 539,-122.5 539,-43.5 325,-43.5"/>
<g id="a_node3_5"><a xlink:href="https://www.lapin.fr/C4" xlink:title="&lt;TABLE&gt;">
<polygon fill="white" stroke="none" points="328,-98 328,-119 536,-119 536,-98 328,-98"/>
<polygon fill="none" stroke="black" points="328,-98 328,-119 536,-119 536,-98 328,-98"/>
<text text-anchor="start" x="410.5" y="-104.8" font-family="Times,serif" font-size="14.00">C4 ca2 </text>
</a>
</g>
<polygon fill="none" stroke="black" points="328,-46 328,-96 402,-96 402,-46 328,-46"/>
<polygon fill="white" stroke="none" points="331,-49 331,-93 399,-93 399,-49 331,-49"/>
<text text-anchor="start" x="335.5" y="-67.3" font-family="Times,serif" font-size="14.00">PROVIDE</text>
<polygon fill="none" stroke="black" points="404,-46 404,-96 457,-96 457,-46 404,-46"/>
<polygon fill="white" stroke="none" points="407,-49 407,-93 454,-93 454,-49 407,-49"/>
<text text-anchor="start" x="411.5" y="-67.3" font-family="Times,serif" font-size="14.00">DATA</text>
<polygon fill="none" stroke="black" points="459,-46 459,-96 536,-96 536,-46 459,-46"/>
<polygon fill="white" stroke="none" points="462,-49 462,-93 533,-93 533,-49 462,-49"/>
<text text-anchor="start" x="468" y="-77.8" font-family="Times,serif" font-size="14.00">REQUIRE</text>
<g id="a_node3_6"><a xlink:href="https://www.lapin.fr/I1" xlink:title="&lt;TABLE&gt;">
<text text-anchor="start" x="473" y="-56.8" font-family="Times,serif" font-size="14.00">I1</text>
</a>
</g>
<text text-anchor="start" x="501.5" y="-56.8" font-family="Times,serif" font-size="14.00">a</text>
<polygon fill="#e2dcbc" stroke="none" points="516,-51 516,-70 531,-70 531,-51 516,-51"/>
<text text-anchor="start" x="521.5" y="-56.8" font-family="Times,serif" font-size="14.00"> </text>
<polygon fill="none" stroke="black" points="325,-43.5 325,-122.5 539,-122.5 539,-43.5 325,-43.5"/>
</g>
<!-- s3 -->
<g id="node19" class="node"><title>s3</title>
<polygon fill="white" stroke="none" points="1509,-148.5 1509,-175.5 1617,-175.5 1617,-148.5 1509,-148.5"/>
<g id="a_node19_7"><a xlink:href="http://lapin.com/Complex_out" xlink:title="&lt;TABLE&gt;">
<polygon fill="none" stroke="black" points="1512,-151 1512,-172 1593,-172 1593,-151 1512,-151"/>
<text text-anchor="start" x="1515" y="-157.8" font-family="Times,serif" font-size="14.00">Complex_out</text>
</a>
</g>
<polygon fill="none" stroke="black" points="1595,-151 1595,-172 1614,-172 1614,-151 1595,-151"/>
<text text-anchor="start" x="1598" y="-157.8" font-family="Times,serif" font-size="14.00">s3</text>
<polygon fill="none" stroke="black" points="1509,-148.5 1509,-175.5 1617,-175.5 1617,-148.5 1509,-148.5"/>
</g>
<!-- ca2&#45;&gt;s3 -->
<g id="edge2" class="edge"><title>ca2:a:e&#45;&gt;s3:w</title>
<path fill="none" stroke="#e2dcbc" stroke-width="2" d="M532,-60C671.639,-60 703.861,-101 843.5,-101 843.5,-101 843.5,-101 1010.5,-101 1229.74,-101 1280.76,-162 1500,-162"/>
</g>
<!-- cb2 -->
<g id="node4" class="node"><title>cb2</title>
<polygon fill="#fee4b8" stroke="none" points="232,-308.5 232,-387.5 632,-387.5 632,-308.5 232,-308.5"/>
<g id="a_node4_8"><a xlink:href="https://www.lapin.fr/C5" xlink:title="&lt;TABLE&gt;">
<polygon fill="white" stroke="none" points="235,-363 235,-384 629,-384 629,-363 235,-363"/>
<polygon fill="none" stroke="black" points="235,-363 235,-384 629,-384 629,-363 235,-363"/>
<text text-anchor="start" x="410.5" y="-369.8" font-family="Times,serif" font-size="14.00">C5 cb2 </text>
</a>
</g>
<polygon fill="none" stroke="black" points="235,-311 235,-361 312,-361 312,-311 235,-311"/>
<polygon fill="white" stroke="none" points="238,-314 238,-358 309,-358 309,-314 238,-314"/>
<text text-anchor="start" x="244" y="-342.8" font-family="Times,serif" font-size="14.00">PROVIDE</text>
<polygon fill="#e2dcbc" stroke="none" points="240,-316 240,-335 262,-335 262,-316 240,-316"/>
<text text-anchor="start" x="249" y="-321.8" font-family="Times,serif" font-size="14.00"> </text>
<g id="a_node4_9"><a xlink:href="https://www.lapin.fr/I1" xlink:title="&lt;TABLE&gt;">
<text text-anchor="start" x="269.5" y="-321.8" font-family="Times,serif" font-size="14.00">I1</text>
</a>
</g>
<text text-anchor="start" x="294.5" y="-321.8" font-family="Times,serif" font-size="14.00">a</text>
<polygon fill="none" stroke="black" points="314,-311 314,-361 553,-361 553,-311 314,-311"/>
<polygon fill="white" stroke="none" points="317,-314 317,-358 550,-358 550,-314 317,-314"/>
<text text-anchor="start" x="414.5" y="-342.8" font-family="Times,serif" font-size="14.00">DATA</text>
<g id="a_node4_10"><a xlink:href="https://www.lapin.fr/Pair" xlink:title="&lt;TABLE&gt;">
<text text-anchor="start" x="321" y="-321.8" font-family="Times,serif" font-size="14.00">Pair</text>
</a>
</g>
<text text-anchor="start" x="349" y="-321.8" font-family="Times,serif" font-size="14.00">p</text>
<text text-anchor="start" x="362" y="-321.8" font-family="Times,serif" font-size="14.00">=/*WARNING NO DEFAULT*/</text>
<polygon fill="none" stroke="black" points="555,-311 555,-361 629,-361 629,-311 555,-311"/>
<polygon fill="white" stroke="none" points="558,-314 558,-358 626,-358 626,-314 558,-314"/>
<text text-anchor="start" x="562.5" y="-332.3" font-family="Times,serif" font-size="14.00">REQUIRE</text>
<polygon fill="none" stroke="black" points="232,-308.5 232,-387.5 632,-387.5 632,-308.5 232,-308.5"/>
</g>
<!-- cc -->
<g id="node5" class="node"><title>cc</title>
<polygon fill="#d8dce2" stroke="none" points="727,-155.5 727,-276.5 962,-276.5 962,-155.5 727,-155.5"/>
<g id="a_node5_11"><a xlink:href="https://www.lapin.fr/C6" xlink:title="&lt;TABLE&gt;">
<polygon fill="white" stroke="none" points="730.5,-252 730.5,-273 959.5,-273 959.5,-252 730.5,-252"/>
<polygon fill="none" stroke="black" points="730.5,-252 730.5,-273 959.5,-273 959.5,-252 730.5,-252"/>
<text text-anchor="start" x="827" y="-258.8" font-family="Times,serif" font-size="14.00">C6 cc </text>
</a>
</g>
<polygon fill="none" stroke="black" points="730.5,-158 730.5,-250 807.5,-250 807.5,-158 730.5,-158"/>
<polygon fill="white" stroke="none" points="733.5,-161 733.5,-247 804.5,-247 804.5,-161 733.5,-161"/>
<text text-anchor="start" x="739.5" y="-221.3" font-family="Times,serif" font-size="14.00">PROVIDE</text>
<polygon fill="#e2dcbc" stroke="none" points="735.5,-163 735.5,-203 757.5,-203 757.5,-163 735.5,-163"/>
<text text-anchor="start" x="744.5" y="-179.3" font-family="Times,serif" font-size="14.00"> </text>
<g id="a_node5_12"><a xlink:href="https://www.lapin.fr/I1" xlink:title="&lt;TABLE&gt;">
<text text-anchor="start" x="765" y="-179.3" font-family="Times,serif" font-size="14.00">I1</text>
</a>
</g>
<text text-anchor="start" x="790" y="-179.3" font-family="Times,serif" font-size="14.00">a</text>
<polygon fill="none" stroke="black" points="809.5,-158 809.5,-250 880.5,-250 880.5,-158 809.5,-158"/>
<polygon fill="white" stroke="none" points="812.5,-161 812.5,-247 877.5,-247 877.5,-161 812.5,-161"/>
<text text-anchor="start" x="826" y="-231.8" font-family="Times,serif" font-size="14.00">DATA</text>
<g id="a_node5_13"><a xlink:href="https://www.lapin.fr/int" xlink:title="&lt;TABLE&gt;">
<text text-anchor="start" x="816.5" y="-210.8" font-family="Times,serif" font-size="14.00">int</text>
</a>
</g>
<text text-anchor="start" x="837.5" y="-210.8" font-family="Times,serif" font-size="14.00">v1</text>
<text text-anchor="start" x="857.5" y="-210.8" font-family="Times,serif" font-size="14.00">=6</text>
<g id="a_node5_14"><a xlink:href="https://www.lapin.fr/int" xlink:title="&lt;TABLE&gt;">
<text text-anchor="start" x="816.5" y="-189.8" font-family="Times,serif" font-size="14.00">int</text>
</a>
</g>
<text text-anchor="start" x="837.5" y="-189.8" font-family="Times,serif" font-size="14.00">v2</text>
<text text-anchor="start" x="857.5" y="-189.8" font-family="Times,serif" font-size="14.00">=6</text>
<g id="a_node5_15"><a xlink:href="https://www.lapin.fr/int" xlink:title="&lt;TABLE&gt;">
<text text-anchor="start" x="816.5" y="-168.8" font-family="Times,serif" font-size="14.00">int</text>
</a>
</g>
<text text-anchor="start" x="837.5" y="-168.8" font-family="Times,serif" font-size="14.00">v3</text>
<text text-anchor="start" x="857.5" y="-168.8" font-family="Times,serif" font-size="14.00">=6</text>
<polygon fill="none" stroke="black" points="882.5,-158 882.5,-250 959.5,-250 959.5,-158 882.5,-158"/>
<polygon fill="white" stroke="none" points="885.5,-161 885.5,-247 956.5,-247 956.5,-161 885.5,-161"/>
<text text-anchor="start" x="891.5" y="-221.3" font-family="Times,serif" font-size="14.00">REQUIRE</text>
<g id="a_node5_16"><a xlink:href="https://www.lapin.fr/I1" xlink:title="&lt;TABLE&gt;">
<text text-anchor="start" x="896.5" y="-179.3" font-family="Times,serif" font-size="14.00">I1</text>
</a>
</g>
<text text-anchor="start" x="925" y="-179.3" font-family="Times,serif" font-size="14.00">b</text>
<polygon fill="#e2dcbc" stroke="none" points="939.5,-163 939.5,-203 954.5,-203 954.5,-163 939.5,-163"/>
<text text-anchor="start" x="945" y="-179.3" font-family="Times,serif" font-size="14.00"> </text>
<polygon fill="none" stroke="black" points="727,-155.5 727,-276.5 962,-276.5 962,-155.5 727,-155.5"/>
</g>
<!-- p_sl4 -->
<g id="node15" class="node"><title>p_sl4</title>
<ellipse fill="none" stroke="black" cx="1009.5" cy="-239" rx="3.5" ry="3.5"/>
</g>
<!-- cc&#45;&gt;p_sl4 -->
<g id="edge15" class="edge"><title>cc:b:e&#45;&gt;p_sl4:w</title>
<path fill="none" stroke="#e2dcbc" stroke-width="2" d="M955.5,-183C989.014,-183 972.486,-239 1006,-239"/>
</g>
<!-- cc2 -->
<g id="node6" class="node"><title>cc2</title>
<polygon fill="#d8dce2" stroke="none" points="312.5,-413.5 312.5,-534.5 551.5,-534.5 551.5,-413.5 312.5,-413.5"/>
<g id="a_node6_17"><a xlink:href="https://www.lapin.fr/C6" xlink:title="&lt;TABLE&gt;">
<polygon fill="white" stroke="none" points="316,-510 316,-531 549,-531 549,-510 316,-510"/>
<polygon fill="none" stroke="black" points="316,-510 316,-531 549,-531 549,-510 316,-510"/>
<text text-anchor="start" x="411" y="-516.8" font-family="Times,serif" font-size="14.00">C6 cc2 </text>
</a>
</g>
<polygon fill="none" stroke="black" points="316,-416 316,-508 393,-508 393,-416 316,-416"/>
<polygon fill="white" stroke="none" points="319,-419 319,-505 390,-505 390,-419 319,-419"/>
<text text-anchor="start" x="325" y="-479.3" font-family="Times,serif" font-size="14.00">PROVIDE</text>
<polygon fill="#e2dcbc" stroke="none" points="321,-421 321,-461 343,-461 343,-421 321,-421"/>
<text text-anchor="start" x="330" y="-437.3" font-family="Times,serif" font-size="14.00"> </text>
<g id="a_node6_18"><a xlink:href="https://www.lapin.fr/I1" xlink:title="&lt;TABLE&gt;">
<text text-anchor="start" x="350.5" y="-437.3" font-family="Times,serif" font-size="14.00">I1</text>
</a>
</g>
<text text-anchor="start" x="375.5" y="-437.3" font-family="Times,serif" font-size="14.00">a</text>
<polygon fill="none" stroke="black" points="395,-416 395,-508 470,-508 470,-416 395,-416"/>
<polygon fill="white" stroke="none" points="398,-419 398,-505 467,-505 467,-419 398,-419"/>
<text text-anchor="start" x="413.5" y="-489.8" font-family="Times,serif" font-size="14.00">DATA</text>
<g id="a_node6_19"><a xlink:href="https://www.lapin.fr/int" xlink:title="&lt;TABLE&gt;">
<text text-anchor="start" x="402" y="-468.8" font-family="Times,serif" font-size="14.00">int</text>
</a>
</g>
<text text-anchor="start" x="423" y="-468.8" font-family="Times,serif" font-size="14.00">v1</text>
<text text-anchor="start" x="445" y="-468.8" font-family="Times,serif" font-size="14.00">=9</text>
<g id="a_node6_20"><a xlink:href="https://www.lapin.fr/int" xlink:title="&lt;TABLE&gt;">
<text text-anchor="start" x="402" y="-447.8" font-family="Times,serif" font-size="14.00">int</text>
</a>
</g>
<text text-anchor="start" x="423" y="-447.8" font-family="Times,serif" font-size="14.00">v2</text>
<text text-anchor="start" x="445" y="-447.8" font-family="Times,serif" font-size="14.00">=0</text>
<g id="a_node6_21"><a xlink:href="https://www.lapin.fr/int" xlink:title="&lt;TABLE&gt;">
<text text-anchor="start" x="402" y="-426.8" font-family="Times,serif" font-size="14.00">int</text>
</a>
</g>
<text text-anchor="start" x="423" y="-426.8" font-family="Times,serif" font-size="14.00">v3</text>
<text text-anchor="start" x="443" y="-426.8" font-family="Times,serif" font-size="14.00">=&#45;1</text>
<polygon fill="none" stroke="black" points="472,-416 472,-508 549,-508 549,-416 472,-416"/>
<polygon fill="white" stroke="none" points="475,-419 475,-505 546,-505 546,-419 475,-419"/>
<text text-anchor="start" x="481" y="-479.3" font-family="Times,serif" font-size="14.00">REQUIRE</text>
<g id="a_node6_22"><a xlink:href="https://www.lapin.fr/I1" xlink:title="&lt;TABLE&gt;">
<text text-anchor="start" x="486" y="-437.3" font-family="Times,serif" font-size="14.00">I1</text>
</a>
</g>
<text text-anchor="start" x="514.5" y="-437.3" font-family="Times,serif" font-size="14.00">b</text>
<polygon fill="#e2dcbc" stroke="none" points="529,-421 529,-461 544,-461 544,-421 529,-421"/>
<text text-anchor="start" x="534.5" y="-437.3" font-family="Times,serif" font-size="14.00"> </text>
<polygon fill="none" stroke="black" points="312.5,-413.5 312.5,-534.5 551.5,-534.5 551.5,-413.5 312.5,-413.5"/>
</g>
<!-- p_sl1 -->
<g id="node9" class="node"><title>p_sl1</title>
<ellipse fill="none" stroke="black" cx="679.5" cy="-441" rx="3.5" ry="3.5"/>
</g>
<!-- cc2&#45;&gt;p_sl1 -->
<g id="edge6" class="edge"><title>cc2:b:e&#45;&gt;p_sl1:w</title>
<path fill="none" stroke="#e2dcbc" stroke-width="2" d="M545,-441C603.222,-441 617.778,-441 676,-441"/>
</g>
<!-- cc4 -->
<g id="node7" class="node"><title>cc4</title>
<polygon fill="#d8dce2" stroke="none" points="1137.5,-360.5 1137.5,-481.5 1376.5,-481.5 1376.5,-360.5 1137.5,-360.5"/>
<g id="a_node7_23"><a xlink:href="https://www.lapin.fr/C6" xlink:title="&lt;TABLE&gt;">
<polygon fill="white" stroke="none" points="1141,-457 1141,-478 1374,-478 1374,-457 1141,-457"/>
<polygon fill="none" stroke="black" points="1141,-457 1141,-478 1374,-478 1374,-457 1141,-457"/>
<text text-anchor="start" x="1236" y="-463.8" font-family="Times,serif" font-size="14.00">C6 cc4 </text>
</a>
</g>
<polygon fill="none" stroke="black" points="1141,-363 1141,-455 1218,-455 1218,-363 1141,-363"/>
<polygon fill="white" stroke="none" points="1144,-366 1144,-452 1215,-452 1215,-366 1144,-366"/>
<text text-anchor="start" x="1150" y="-426.3" font-family="Times,serif" font-size="14.00">PROVIDE</text>
<polygon fill="#e2dcbc" stroke="none" points="1146,-368 1146,-408 1168,-408 1168,-368 1146,-368"/>
<text text-anchor="start" x="1155" y="-384.3" font-family="Times,serif" font-size="14.00"> </text>
<g id="a_node7_24"><a xlink:href="https://www.lapin.fr/I1" xlink:title="&lt;TABLE&gt;">
<text text-anchor="start" x="1175.5" y="-384.3" font-family="Times,serif" font-size="14.00">I1</text>
</a>
</g>
<text text-anchor="start" x="1200.5" y="-384.3" font-family="Times,serif" font-size="14.00">a</text>
<polygon fill="none" stroke="black" points="1220,-363 1220,-455 1295,-455 1295,-363 1220,-363"/>
<polygon fill="white" stroke="none" points="1223,-366 1223,-452 1292,-452 1292,-366 1223,-366"/>
<text text-anchor="start" x="1238.5" y="-436.8" font-family="Times,serif" font-size="14.00">DATA</text>
<g id="a_node7_25"><a xlink:href="https://www.lapin.fr/int" xlink:title="&lt;TABLE&gt;">
<text text-anchor="start" x="1227" y="-415.8" font-family="Times,serif" font-size="14.00">int</text>
</a>
</g>
<text text-anchor="start" x="1248" y="-415.8" font-family="Times,serif" font-size="14.00">v1</text>
<text text-anchor="start" x="1270" y="-415.8" font-family="Times,serif" font-size="14.00">=9</text>
<g id="a_node7_26"><a xlink:href="https://www.lapin.fr/int" xlink:title="&lt;TABLE&gt;">
<text text-anchor="start" x="1227" y="-394.8" font-family="Times,serif" font-size="14.00">int</text>
</a>
</g>
<text text-anchor="start" x="1248" y="-394.8" font-family="Times,serif" font-size="14.00">v2</text>
<text text-anchor="start" x="1270" y="-394.8" font-family="Times,serif" font-size="14.00">=6</text>
<g id="a_node7_27"><a xlink:href="https://www.lapin.fr/int" xlink:title="&lt;TABLE&gt;">
<text text-anchor="start" x="1227" y="-373.8" font-family="Times,serif" font-size="14.00">int</text>
</a>
</g>
<text text-anchor="start" x="1248" y="-373.8" font-family="Times,serif" font-size="14.00">v3</text>
<text text-anchor="start" x="1268" y="-373.8" font-family="Times,serif" font-size="14.00">=&#45;1</text>
<polygon fill="none" stroke="black" points="1297,-363 1297,-455 1374,-455 1374,-363 1297,-363"/>
<polygon fill="white" stroke="none" points="1300,-366 1300,-452 1371,-452 1371,-366 1300,-366"/>
<text text-anchor="start" x="1306" y="-426.3" font-family="Times,serif" font-size="14.00">REQUIRE</text>
<g id="a_node7_28"><a xlink:href="https://www.lapin.fr/I1" xlink:title="&lt;TABLE&gt;">
<text text-anchor="start" x="1311" y="-384.3" font-family="Times,serif" font-size="14.00">I1</text>
</a>
</g>
<text text-anchor="start" x="1339.5" y="-384.3" font-family="Times,serif" font-size="14.00">b</text>
<polygon fill="#e2dcbc" stroke="none" points="1354,-368 1354,-408 1369,-408 1369,-368 1354,-368"/>
<text text-anchor="start" x="1359.5" y="-384.3" font-family="Times,serif" font-size="14.00"> </text>
<polygon fill="none" stroke="black" points="1137.5,-360.5 1137.5,-481.5 1376.5,-481.5 1376.5,-360.5 1137.5,-360.5"/>
</g>
<!-- s5 -->
<g id="node20" class="node"><title>s5</title>
<polygon fill="white" stroke="none" points="1509,-202.5 1509,-229.5 1617,-229.5 1617,-202.5 1509,-202.5"/>
<g id="a_node20_29"><a xlink:href="http://lapin.com/Complex_out" xlink:title="&lt;TABLE&gt;">
<polygon fill="none" stroke="black" points="1512,-205 1512,-226 1593,-226 1593,-205 1512,-205"/>
<text text-anchor="start" x="1515" y="-211.8" font-family="Times,serif" font-size="14.00">Complex_out</text>
</a>
</g>
<polygon fill="none" stroke="black" points="1595,-205 1595,-226 1614,-226 1614,-205 1595,-205"/>
<text text-anchor="start" x="1598" y="-211.8" font-family="Times,serif" font-size="14.00">s5</text>
<polygon fill="none" stroke="black" points="1509,-202.5 1509,-229.5 1617,-229.5 1617,-202.5 1509,-202.5"/>
</g>
<!-- cc4&#45;&gt;s5 -->
<g id="edge4" class="edge"><title>cc4:b:e&#45;&gt;s5:w</title>
<path fill="none" stroke="#e2dcbc" stroke-width="2" d="M1370,-388C1426.11,-388 1440.85,-360.982 1473,-315 1499.14,-277.625 1454.39,-216 1500,-216"/>
</g>
<!-- cc3 -->
<g id="node8" class="node"><title>cc3</title>
<polygon fill="#d8dce2" stroke="none" points="727,-394.5 727,-515.5 962,-515.5 962,-394.5 727,-394.5"/>
<g id="a_node8_30"><a xlink:href="https://www.lapin.fr/C6" xlink:title="&lt;TABLE&gt;">
<polygon fill="white" stroke="none" points="730.5,-491 730.5,-512 959.5,-512 959.5,-491 730.5,-491"/>
<polygon fill="none" stroke="black" points="730.5,-491 730.5,-512 959.5,-512 959.5,-491 730.5,-491"/>
<text text-anchor="start" x="823.5" y="-497.8" font-family="Times,serif" font-size="14.00">C6 cc3 </text>
</a>
</g>
<polygon fill="none" stroke="black" points="730.5,-397 730.5,-489 807.5,-489 807.5,-397 730.5,-397"/>
<polygon fill="white" stroke="none" points="733.5,-400 733.5,-486 804.5,-486 804.5,-400 733.5,-400"/>
<text text-anchor="start" x="739.5" y="-460.3" font-family="Times,serif" font-size="14.00">PROVIDE</text>
<polygon fill="#e2dcbc" stroke="none" points="735.5,-402 735.5,-442 757.5,-442 757.5,-402 735.5,-402"/>
<text text-anchor="start" x="744.5" y="-418.3" font-family="Times,serif" font-size="14.00"> </text>
<g id="a_node8_31"><a xlink:href="https://www.lapin.fr/I1" xlink:title="&lt;TABLE&gt;">
<text text-anchor="start" x="765" y="-418.3" font-family="Times,serif" font-size="14.00">I1</text>
</a>
</g>
<text text-anchor="start" x="790" y="-418.3" font-family="Times,serif" font-size="14.00">a</text>
<polygon fill="none" stroke="black" points="809.5,-397 809.5,-489 880.5,-489 880.5,-397 809.5,-397"/>
<polygon fill="white" stroke="none" points="812.5,-400 812.5,-486 877.5,-486 877.5,-400 812.5,-400"/>
<text text-anchor="start" x="826" y="-470.8" font-family="Times,serif" font-size="14.00">DATA</text>
<g id="a_node8_32"><a xlink:href="https://www.lapin.fr/int" xlink:title="&lt;TABLE&gt;">
<text text-anchor="start" x="816.5" y="-449.8" font-family="Times,serif" font-size="14.00">int</text>
</a>
</g>
<text text-anchor="start" x="837.5" y="-449.8" font-family="Times,serif" font-size="14.00">v1</text>
<text text-anchor="start" x="857.5" y="-449.8" font-family="Times,serif" font-size="14.00">=9</text>
<g id="a_node8_33"><a xlink:href="https://www.lapin.fr/int" xlink:title="&lt;TABLE&gt;">
<text text-anchor="start" x="816.5" y="-428.8" font-family="Times,serif" font-size="14.00">int</text>
</a>
</g>
<text text-anchor="start" x="837.5" y="-428.8" font-family="Times,serif" font-size="14.00">v2</text>
<text text-anchor="start" x="857.5" y="-428.8" font-family="Times,serif" font-size="14.00">=0</text>
<g id="a_node8_34"><a xlink:href="https://www.lapin.fr/int" xlink:title="&lt;TABLE&gt;">
<text text-anchor="start" x="816.5" y="-407.8" font-family="Times,serif" font-size="14.00">int</text>
</a>
</g>
<text text-anchor="start" x="837.5" y="-407.8" font-family="Times,serif" font-size="14.00">v3</text>
<text text-anchor="start" x="857.5" y="-407.8" font-family="Times,serif" font-size="14.00">=6</text>
<polygon fill="none" stroke="black" points="882.5,-397 882.5,-489 959.5,-489 959.5,-397 882.5,-397"/>
<polygon fill="white" stroke="none" points="885.5,-400 885.5,-486 956.5,-486 956.5,-400 885.5,-400"/>
<text text-anchor="start" x="891.5" y="-460.3" font-family="Times,serif" font-size="14.00">REQUIRE</text>
<g id="a_node8_35"><a xlink:href="https://www.lapin.fr/I1" xlink:title="&lt;TABLE&gt;">
<text text-anchor="start" x="896.5" y="-418.3" font-family="Times,serif" font-size="14.00">I1</text>
</a>
</g>
<text text-anchor="start" x="925" y="-418.3" font-family="Times,serif" font-size="14.00">b</text>
<polygon fill="#e2dcbc" stroke="none" points="939.5,-402 939.5,-442 954.5,-442 954.5,-402 939.5,-402"/>
<text text-anchor="start" x="945" y="-418.3" font-family="Times,serif" font-size="14.00"> </text>
<polygon fill="none" stroke="black" points="727,-394.5 727,-515.5 962,-515.5 962,-394.5 727,-394.5"/>
</g>
<!-- p_sl2 -->
<g id="node11" class="node"><title>p_sl2</title>
<ellipse fill="none" stroke="black" cx="1009.5" cy="-422" rx="3.5" ry="3.5"/>
</g>
<!-- cc3&#45;&gt;p_sl2 -->
<g id="edge9" class="edge"><title>cc3:b:e&#45;&gt;p_sl2:w</title>
<path fill="none" stroke="#e2dcbc" stroke-width="2" d="M955.5,-422C977.944,-422 983.556,-422 1006,-422"/>
</g>
<!-- p_sl1&#45;&gt;cc3 -->
<g id="edge7" class="edge"><title>p_sl1:e&#45;&gt;cc3:a:w</title>
<path fill="none" stroke="#e2dcbc" stroke-width="2" d="M683,-441C707.397,-441 710.103,-422 734.5,-422"/>
</g>
<!-- sl1 -->
<g id="node10" class="node"><title>sl1</title>
<polygon fill="white" stroke="none" points="394,-561.5 394,-588.5 470,-588.5 470,-561.5 394,-561.5"/>
<g id="a_node10_36"><a xlink:href="http://lapin.com/Simple" xlink:title="&lt;TABLE&gt;">
<polygon fill="none" stroke="black" points="397,-564 397,-585 443,-585 443,-564 397,-564"/>
<text text-anchor="start" x="400" y="-570.8" font-family="Times,serif" font-size="14.00">Simple</text>
</a>
</g>
<polygon fill="none" stroke="black" points="445,-564 445,-585 467,-585 467,-564 445,-564"/>
<text text-anchor="start" x="448" y="-570.8" font-family="Times,serif" font-size="14.00">sl1</text>
<polygon fill="none" stroke="black" points="394,-561.5 394,-588.5 470,-588.5 470,-561.5 394,-561.5"/>
</g>
<!-- sl1&#45;&gt;p_sl1 -->
<g id="edge5" class="edge"><title>sl1:s&#45;&gt;p_sl1:n</title>
<path fill="none" stroke="black" stroke-dasharray="1,5" d="M432,-556C432,-544.436 630.587,-554.718 640,-548 659.785,-533.879 679.5,-470.307 679.5,-446"/>
</g>
<!-- p_sl2&#45;&gt;cc4 -->
<g id="edge10" class="edge"><title>p_sl2:e&#45;&gt;cc4:a:w</title>
<path fill="none" stroke="#e2dcbc" stroke-width="2" d="M1013,-422C1073.58,-422 1084.42,-388 1145,-388"/>
</g>
<!-- sl2 -->
<g id="node12" class="node"><title>sl2</title>
<polygon fill="white" stroke="none" points="806.5,-542.5 806.5,-569.5 882.5,-569.5 882.5,-542.5 806.5,-542.5"/>
<g id="a_node12_37"><a xlink:href="http://lapin.com/Simple" xlink:title="&lt;TABLE&gt;">
<polygon fill="none" stroke="black" points="809.5,-545 809.5,-566 855.5,-566 855.5,-545 809.5,-545"/>
<text text-anchor="start" x="812.5" y="-551.8" font-family="Times,serif" font-size="14.00">Simple</text>
</a>
</g>
<polygon fill="none" stroke="black" points="857.5,-545 857.5,-566 879.5,-566 879.5,-545 857.5,-545"/>
<text text-anchor="start" x="860.5" y="-551.8" font-family="Times,serif" font-size="14.00">sl2</text>
<polygon fill="none" stroke="black" points="806.5,-542.5 806.5,-569.5 882.5,-569.5 882.5,-542.5 806.5,-542.5"/>
</g>
<!-- sl2&#45;&gt;p_sl2 -->
<g id="edge8" class="edge"><title>sl2:s&#45;&gt;p_sl2:n</title>
<path fill="none" stroke="black" stroke-dasharray="1,5" d="M844.5,-537C844.5,-523.027 958.73,-537.26 970,-529 1009.21,-500.262 1009.5,-475.614 1009.5,-427"/>
</g>
<!-- p_sl3&#45;&gt;cc -->
<g id="edge13" class="edge"><title>p_sl3:e&#45;&gt;cc:a:w</title>
<path fill="none" stroke="#e2dcbc" stroke-width="2" d="M683,-183C705.889,-183 711.611,-183 734.5,-183"/>
</g>
<!-- sl3 -->
<g id="node14" class="node"><title>sl3</title>
<polygon fill="white" stroke="none" points="394,-254.5 394,-281.5 470,-281.5 470,-254.5 394,-254.5"/>
<g id="a_node14_38"><a xlink:href="http://lapin.com/Simple" xlink:title="&lt;TABLE&gt;">
<polygon fill="none" stroke="black" points="397,-257 397,-278 443,-278 443,-257 397,-257"/>
<text text-anchor="start" x="400" y="-263.8" font-family="Times,serif" font-size="14.00">Simple</text>
</a>
</g>
<polygon fill="none" stroke="black" points="445,-257 445,-278 467,-278 467,-257 445,-257"/>
<text text-anchor="start" x="448" y="-263.8" font-family="Times,serif" font-size="14.00">sl3</text>
<polygon fill="none" stroke="black" points="394,-254.5 394,-281.5 470,-281.5 470,-254.5 394,-254.5"/>
</g>
<!-- sl3&#45;&gt;p_sl3 -->
<g id="edge11" class="edge"><title>sl3:s&#45;&gt;p_sl3:n</title>
<path fill="none" stroke="black" stroke-dasharray="1,5" d="M432,-249C432,-237.436 629.766,-246.385 640,-241 665.998,-227.32 679.5,-217.378 679.5,-188"/>
</g>
<!-- p_sl4&#45;&gt;cb -->
<g id="edge16" class="edge"><title>p_sl4:e&#45;&gt;cb:a:w</title>
<path fill="none" stroke="#e2dcbc" stroke-width="2" d="M1013,-239C1035.67,-239 1041.33,-239 1064,-239"/>
</g>
<!-- sl4 -->
<g id="node16" class="node"><title>sl4</title>
<polygon fill="white" stroke="none" points="806.5,-303.5 806.5,-330.5 882.5,-330.5 882.5,-303.5 806.5,-303.5"/>
<g id="a_node16_39"><a xlink:href="http://lapin.com/Simple" xlink:title="&lt;TABLE&gt;">
<polygon fill="none" stroke="black" points="809.5,-306 809.5,-327 855.5,-327 855.5,-306 809.5,-306"/>
<text text-anchor="start" x="812.5" y="-312.8" font-family="Times,serif" font-size="14.00">Simple</text>
</a>
</g>
<polygon fill="none" stroke="black" points="857.5,-306 857.5,-327 879.5,-327 879.5,-306 857.5,-306"/>
<text text-anchor="start" x="860.5" y="-312.8" font-family="Times,serif" font-size="14.00">sl4</text>
<polygon fill="none" stroke="black" points="806.5,-303.5 806.5,-330.5 882.5,-330.5 882.5,-303.5 806.5,-303.5"/>
</g>
<!-- sl4&#45;&gt;p_sl4 -->
<g id="edge14" class="edge"><title>sl4:s&#45;&gt;p_sl4:n</title>
<path fill="none" stroke="black" stroke-dasharray="1,5" d="M844.5,-298C844.5,-284.027 957.495,-296.234 970,-290 994.117,-277.977 1009.5,-270.948 1009.5,-244"/>
</g>
<!-- s2 -->
<g id="node17" class="node"><title>s2</title>
<polygon fill="white" stroke="none" points="24,-270 24,-370 180,-370 180,-270 24,-270"/>
<g id="a_node17_40"><a xlink:href="http://lapin.com/Complex_in" xlink:title="&lt;TABLE&gt;">
<polygon fill="none" stroke="black" points="27,-346 27,-367 128,-367 128,-346 27,-346"/>
<text text-anchor="start" x="43.5" y="-352.8" font-family="Times,serif" font-size="14.00">Complex_in</text>
</a>
</g>
<polygon fill="none" stroke="black" points="130,-346 130,-367 177,-367 177,-346 130,-346"/>
<text text-anchor="start" x="147" y="-352.8" font-family="Times,serif" font-size="14.00">s2</text>
<polygon fill="none" stroke="black" points="27,-273 27,-344 177,-344 177,-273 27,-273"/>
<text text-anchor="start" x="83" y="-325.8" font-family="Times,serif" font-size="14.00">DATA</text>
<g id="a_node17_41"><a xlink:href="https://www.lapin.fr/mstring" xlink:title="&lt;TABLE&gt;">
<text text-anchor="start" x="34.5" y="-304.8" font-family="Times,serif" font-size="14.00">mstring</text>
</a>
</g>
<text text-anchor="start" x="84.5" y="-304.8" font-family="Times,serif" font-size="14.00">name</text>
<text text-anchor="start" x="122" y="-304.8" font-family="Times,serif" font-size="14.00">=&quot;lapin&quot;</text>
<g id="a_node17_42"><a xlink:href="https://www.lapin.fr/int" xlink:title="&lt;TABLE&gt;">
<text text-anchor="start" x="48.5" y="-283.8" font-family="Times,serif" font-size="14.00">int</text>
</a>
</g>
<text text-anchor="start" x="89" y="-283.8" font-family="Times,serif" font-size="14.00">port</text>
<text text-anchor="start" x="138" y="-283.8" font-family="Times,serif" font-size="14.00">=0</text>
<polygon fill="none" stroke="black" points="24,-270 24,-370 180,-370 180,-270 24,-270"/>
</g>
<!-- s2&#45;&gt;cb2 -->
<g id="edge1" class="edge"><title>s2:e&#45;&gt;cb2:a:w</title>
<path fill="none" stroke="#e2dcbc" stroke-width="2" d="M189,-320C211.333,-320 216.667,-325 239,-325"/>
</g>
<!-- s4 -->
<g id="node18" class="node"><title>s4</title>
<polygon fill="white" stroke="none" points="38,-396 38,-496 166,-496 166,-396 38,-396"/>
<g id="a_node18_43"><a xlink:href="http://lapin.com/Complex_in" xlink:title="&lt;TABLE&gt;">
<polygon fill="none" stroke="black" points="41,-472 41,-493 128,-493 128,-472 41,-472"/>
<text text-anchor="start" x="50.5" y="-478.8" font-family="Times,serif" font-size="14.00">Complex_in</text>
</a>
</g>
<polygon fill="none" stroke="black" points="130,-472 130,-493 163,-493 163,-472 130,-472"/>
<text text-anchor="start" x="140" y="-478.8" font-family="Times,serif" font-size="14.00">s4</text>
<polygon fill="none" stroke="black" points="41,-399 41,-470 163,-470 163,-399 41,-399"/>
<text text-anchor="start" x="83" y="-451.8" font-family="Times,serif" font-size="14.00">DATA</text>
<g id="a_node18_44"><a xlink:href="https://www.lapin.fr/mstring" xlink:title="&lt;TABLE&gt;">
<text text-anchor="start" x="48.5" y="-430.8" font-family="Times,serif" font-size="14.00">mstring</text>
</a>
</g>
<text text-anchor="start" x="98.5" y="-430.8" font-family="Times,serif" font-size="14.00">name</text>
<text text-anchor="start" x="136" y="-430.8" font-family="Times,serif" font-size="14.00">=...</text>
<g id="a_node18_45"><a xlink:href="https://www.lapin.fr/int" xlink:title="&lt;TABLE&gt;">
<text text-anchor="start" x="62.5" y="-409.8" font-family="Times,serif" font-size="14.00">int</text>
</a>
</g>
<text text-anchor="start" x="103" y="-409.8" font-family="Times,serif" font-size="14.00">port</text>
<text text-anchor="start" x="138" y="-409.8" font-family="Times,serif" font-size="14.00">=0</text>
<polygon fill="none" stroke="black" points="38,-396 38,-496 166,-496 166,-396 38,-396"/>
</g>
<!-- s4&#45;&gt;cc2 -->
<g id="edge3" class="edge"><title>s4:e&#45;&gt;cc2:a:w</title>
<path fill="none" stroke="#e2dcbc" stroke-width="2" d="M175,-446C239.483,-446 255.517,-441 320,-441"/>
</g>
</g>
</svg>
